M48
; DRILL file {KiCad 7.0.5} date Wed Jul 12 13:23:09 2023
; FORMAT={-:-/ absolute / inch / decimal}
; #@! TF.CreationDate,2023-07-12T13:23:09+02:00
; #@! TF.GenerationSoftware,Kicad,Pcbnew,7.0.5
; #@! TF.FileFunction,Plated,1,2,PTH
FMAT,2
INCH
; #@! TA.AperFunction,Plated,PTH,ViaDrill
T1C0.0118
; #@! TA.AperFunction,Plated,PTH,ViaDrill
T2C0.0157
%
G90
G05
T1
X4.0402Y-5.1008
X4.2352Y-5.2158
X4.2352Y-5.2858
X4.3152Y-5.2158
X4.3152Y-5.2858
X4.7502Y-4.7658
X4.7502Y-4.7908
X4.8552Y-4.7658
X4.8552Y-4.7908
X4.8552Y-4.8183
X4.8552Y-4.8458
X4.8852Y-4.7658
T2
X3.8752Y-5.1058
X3.8852Y-4.9508
X3.9102Y-5.1058
X3.9202Y-4.9508
X4.2652Y-4.8408
X4.2668Y-4.8758
X4.2802Y-4.8108
X4.3002Y-4.8408
X4.3002Y-4.8758
X4.3002Y-4.9108
X4.4302Y-4.7058
X4.4302Y-4.8858
X4.4302Y-4.9308
X4.4312Y-4.6668
X4.5402Y-4.6658
X4.5402Y-4.7058
X4.5402Y-4.8858
X4.5402Y-4.9308
X4.6102Y-4.8858
X4.6102Y-4.9308
X4.7202Y-4.8858
X4.7202Y-4.9308
T0
M30
