G04 #@! TF.GenerationSoftware,KiCad,Pcbnew,7.0.5*
G04 #@! TF.CreationDate,2023-07-12T12:31:12+02:00*
G04 #@! TF.ProjectId,Tunnelling-Amp,54756e6e-656c-46c6-996e-672d416d702e,1.0*
G04 #@! TF.SameCoordinates,Original*
G04 #@! TF.FileFunction,Copper,L1,Top*
G04 #@! TF.FilePolarity,Positive*
%FSLAX46Y46*%
G04 Gerber Fmt 4.6, Leading zero omitted, Abs format (unit mm)*
G04 Created by KiCad (PCBNEW 7.0.5) date 2023-07-12 12:31:12*
%MOMM*%
%LPD*%
G01*
G04 APERTURE LIST*
G04 Aperture macros list*
%AMRoundRect*
0 Rectangle with rounded corners*
0 $1 Rounding radius*
0 $2 $3 $4 $5 $6 $7 $8 $9 X,Y pos of 4 corners*
0 Add a 4 corners polygon primitive as box body*
4,1,4,$2,$3,$4,$5,$6,$7,$8,$9,$2,$3,0*
0 Add four circle primitives for the rounded corners*
1,1,$1+$1,$2,$3*
1,1,$1+$1,$4,$5*
1,1,$1+$1,$6,$7*
1,1,$1+$1,$8,$9*
0 Add four rect primitives between the rounded corners*
20,1,$1+$1,$2,$3,$4,$5,0*
20,1,$1+$1,$4,$5,$6,$7,0*
20,1,$1+$1,$6,$7,$8,$9,0*
20,1,$1+$1,$8,$9,$2,$3,0*%
G04 Aperture macros list end*
G04 #@! TA.AperFunction,SMDPad,CuDef*
%ADD10RoundRect,0.250000X-0.925000X0.787500X-0.925000X-0.787500X0.925000X-0.787500X0.925000X0.787500X0*%
G04 #@! TD*
G04 #@! TA.AperFunction,SMDPad,CuDef*
%ADD11RoundRect,0.250000X0.925000X-0.787500X0.925000X0.787500X-0.925000X0.787500X-0.925000X-0.787500X0*%
G04 #@! TD*
G04 #@! TA.AperFunction,SMDPad,CuDef*
%ADD12R,2.500000X2.500000*%
G04 #@! TD*
G04 #@! TA.AperFunction,SMDPad,CuDef*
%ADD13RoundRect,0.250000X0.475000X-0.337500X0.475000X0.337500X-0.475000X0.337500X-0.475000X-0.337500X0*%
G04 #@! TD*
G04 #@! TA.AperFunction,SMDPad,CuDef*
%ADD14R,1.000000X1.000000*%
G04 #@! TD*
G04 #@! TA.AperFunction,SMDPad,CuDef*
%ADD15R,2.130000X1.000000*%
G04 #@! TD*
G04 #@! TA.AperFunction,SMDPad,CuDef*
%ADD16R,3.800000X1.000000*%
G04 #@! TD*
G04 #@! TA.AperFunction,SMDPad,CuDef*
%ADD17R,1.000000X1.650000*%
G04 #@! TD*
G04 #@! TA.AperFunction,SMDPad,CuDef*
%ADD18R,1.000000X3.800000*%
G04 #@! TD*
G04 #@! TA.AperFunction,SMDPad,CuDef*
%ADD19RoundRect,0.150000X0.825000X0.150000X-0.825000X0.150000X-0.825000X-0.150000X0.825000X-0.150000X0*%
G04 #@! TD*
G04 #@! TA.AperFunction,SMDPad,CuDef*
%ADD20RoundRect,0.250000X-0.337500X-0.475000X0.337500X-0.475000X0.337500X0.475000X-0.337500X0.475000X0*%
G04 #@! TD*
G04 #@! TA.AperFunction,SMDPad,CuDef*
%ADD21RoundRect,0.250000X-0.475000X0.337500X-0.475000X-0.337500X0.475000X-0.337500X0.475000X0.337500X0*%
G04 #@! TD*
G04 #@! TA.AperFunction,SMDPad,CuDef*
%ADD22RoundRect,0.250000X-0.400000X-0.625000X0.400000X-0.625000X0.400000X0.625000X-0.400000X0.625000X0*%
G04 #@! TD*
G04 #@! TA.AperFunction,SMDPad,CuDef*
%ADD23RoundRect,0.250000X0.337500X0.475000X-0.337500X0.475000X-0.337500X-0.475000X0.337500X-0.475000X0*%
G04 #@! TD*
G04 #@! TA.AperFunction,SMDPad,CuDef*
%ADD24C,1.500000*%
G04 #@! TD*
G04 #@! TA.AperFunction,ViaPad*
%ADD25C,0.800000*%
G04 #@! TD*
G04 #@! TA.AperFunction,ViaPad*
%ADD26C,0.600000*%
G04 #@! TD*
G04 #@! TA.AperFunction,Conductor*
%ADD27C,0.300000*%
G04 #@! TD*
G04 #@! TA.AperFunction,Conductor*
%ADD28C,0.600000*%
G04 #@! TD*
G04 #@! TA.AperFunction,Conductor*
%ADD29C,1.000000*%
G04 #@! TD*
G04 #@! TA.AperFunction,Conductor*
%ADD30C,0.200000*%
G04 #@! TD*
G04 #@! TA.AperFunction,Conductor*
%ADD31C,0.500000*%
G04 #@! TD*
G04 APERTURE END LIST*
D10*
X113924000Y-119350500D03*
X113924000Y-124275500D03*
D11*
X118496000Y-124275500D03*
X118496000Y-119350500D03*
D12*
X116210000Y-131465000D03*
D13*
X98930000Y-124628500D03*
X98930000Y-122553500D03*
D14*
X97026000Y-131365000D03*
D15*
X98591000Y-131365000D03*
D16*
X103756000Y-131365000D03*
D15*
X108921000Y-131365000D03*
D14*
X110486000Y-131365000D03*
D17*
X97026000Y-130040000D03*
X110486000Y-130040000D03*
D18*
X97026000Y-125115000D03*
X110486000Y-125115000D03*
D17*
X97026000Y-120190000D03*
X110486000Y-120190000D03*
D14*
X97026000Y-118865000D03*
D15*
X98591000Y-118865000D03*
D16*
X103756000Y-118865000D03*
D15*
X108921000Y-118865000D03*
D14*
X110486000Y-118865000D03*
D19*
X106231000Y-125750000D03*
X106231000Y-124480000D03*
X106231000Y-123210000D03*
X101281000Y-123210000D03*
X101281000Y-124480000D03*
X101281000Y-125750000D03*
X101281000Y-127020000D03*
D20*
X102345500Y-121051000D03*
X104420500Y-121051000D03*
D21*
X98930000Y-126744500D03*
X98930000Y-128819500D03*
D22*
X104746000Y-129179000D03*
X107846000Y-129179000D03*
D23*
X108603500Y-121051000D03*
X106528500Y-121051000D03*
D24*
X121925000Y-124480000D03*
X115575000Y-127020000D03*
X106050000Y-133370000D03*
X108590000Y-133370000D03*
X121925000Y-121940000D03*
X121925000Y-119400000D03*
D25*
X112527000Y-124099000D03*
X112527000Y-125242000D03*
X115321000Y-125242000D03*
X115321000Y-124099000D03*
X109225000Y-123845000D03*
D26*
X123322000Y-122385503D03*
D25*
X108336000Y-122956000D03*
X117099000Y-124099000D03*
D26*
X107574000Y-134259000D03*
X120655000Y-121686000D03*
D25*
X109225000Y-124734000D03*
D26*
X109606000Y-134259000D03*
D25*
X117099000Y-125242000D03*
D26*
X102621000Y-129560000D03*
D25*
X119893000Y-124099000D03*
D26*
X107574000Y-132481000D03*
X124084000Y-121051000D03*
D25*
X108717000Y-122194000D03*
X98430000Y-129687000D03*
D26*
X123322000Y-121686000D03*
D25*
X99319000Y-129687000D03*
D26*
X123322000Y-123083000D03*
X123322000Y-121051000D03*
D25*
X119893000Y-125242000D03*
X108375497Y-123845000D03*
D26*
X109606000Y-132481000D03*
D25*
X109225000Y-122956000D03*
D26*
X120655000Y-121051000D03*
D25*
X115321000Y-119527000D03*
X115321000Y-118511000D03*
X99573000Y-125750000D03*
X98684000Y-125750000D03*
X112527000Y-119527000D03*
X112552400Y-118536400D03*
D27*
X118432500Y-133687500D02*
X118750000Y-133370000D01*
X113987500Y-133687500D02*
X114305000Y-134005000D01*
X118432500Y-129242500D02*
X118115000Y-128925000D01*
X118750000Y-131465000D02*
X118750000Y-129560000D01*
X116210000Y-134005000D02*
X116210000Y-134005000D01*
X113670000Y-131465000D02*
X113670000Y-133370000D01*
X116210000Y-128925000D02*
X114940000Y-128925000D01*
X116210000Y-134005000D02*
X118115000Y-134005000D01*
X116210000Y-128925000D02*
X116210000Y-128925000D01*
X113289000Y-127274000D02*
X111257000Y-127274000D01*
X112400000Y-128925000D02*
X112400000Y-128925000D01*
X111249000Y-127266000D02*
X110939500Y-126956500D01*
X114940000Y-128925000D02*
X113289000Y-127274000D01*
X111257000Y-128925000D02*
X112400000Y-128925000D01*
X110241000Y-126258000D02*
X110939500Y-126956500D01*
X105288000Y-126893000D02*
X104526000Y-126131000D01*
X106304000Y-128847472D02*
X107574000Y-127577472D01*
X106231000Y-124480000D02*
X107828000Y-124480000D01*
X118750000Y-133370000D02*
X118750000Y-131465000D01*
X105415000Y-124480000D02*
X106231000Y-124480000D01*
X108921000Y-131365000D02*
X107556000Y-131365000D01*
X107556000Y-131365000D02*
X106304000Y-130113000D01*
X104526000Y-126131000D02*
X104526000Y-125369000D01*
X110486000Y-126503000D02*
X110486000Y-125115000D01*
X107574000Y-127577472D02*
X107574000Y-127147000D01*
X104526000Y-125369000D02*
X105415000Y-124480000D01*
X112400000Y-128925000D02*
X113670000Y-130195000D01*
X113670000Y-130195000D02*
X113670000Y-131465000D01*
X118750000Y-129560000D02*
X118432500Y-129242500D01*
X109606000Y-126258000D02*
X110241000Y-126258000D01*
X110486000Y-129696000D02*
X111257000Y-128925000D01*
X107320000Y-126893000D02*
X105288000Y-126893000D01*
X111257000Y-127274000D02*
X111249000Y-127266000D01*
X110939500Y-126956500D02*
X110486000Y-126503000D01*
X113670000Y-133370000D02*
X113987500Y-133687500D01*
X107828000Y-124480000D02*
X109606000Y-126258000D01*
X113289000Y-127274000D02*
X113289000Y-127274000D01*
X114305000Y-134005000D02*
X116210000Y-134005000D01*
X107574000Y-127147000D02*
X107320000Y-126893000D01*
X110486000Y-130040000D02*
X110486000Y-129696000D01*
X118115000Y-128925000D02*
X116210000Y-128925000D01*
X118115000Y-134005000D02*
X118432500Y-133687500D01*
X106304000Y-130113000D02*
X106304000Y-128847472D01*
D28*
X113924000Y-119350500D02*
X113874500Y-119400000D01*
D29*
X121925000Y-124480000D02*
X119385000Y-121940000D01*
X114940000Y-121940000D02*
X114305000Y-121305000D01*
X114305000Y-121305000D02*
X114305000Y-119731500D01*
X119385000Y-121940000D02*
X114940000Y-121940000D01*
D28*
X114305000Y-119731500D02*
X113924000Y-119350500D01*
D29*
X104408000Y-121051000D02*
X106528500Y-121051000D01*
X117099000Y-119527000D02*
X119893000Y-119527000D01*
X106528500Y-121051000D02*
X106528500Y-122912500D01*
X106528500Y-121051000D02*
X106528500Y-118286500D01*
X117099000Y-118511000D02*
X119893000Y-118511000D01*
X117099000Y-118511000D02*
X117099000Y-119527000D01*
X121925000Y-119400000D02*
X120020000Y-119400000D01*
X115999000Y-117411000D02*
X117099000Y-118511000D01*
X107404000Y-117411000D02*
X115999000Y-117411000D01*
D30*
X106528500Y-122912500D02*
X106231000Y-123210000D01*
D29*
X106528500Y-118286500D02*
X107404000Y-117411000D01*
D30*
X120020000Y-119400000D02*
X119893000Y-119527000D01*
X112781000Y-128036000D02*
X116210000Y-131465000D01*
X106231000Y-125750000D02*
X108021000Y-125750000D01*
X107846000Y-129179000D02*
X109164000Y-129179000D01*
X109164000Y-129179000D02*
X110307000Y-128036000D01*
X108021000Y-125750000D02*
X110307000Y-128036000D01*
X110307000Y-128036000D02*
X112781000Y-128036000D01*
D31*
X102875000Y-124861000D02*
X102494000Y-124480000D01*
D30*
X106050000Y-133370000D02*
X106050000Y-130495396D01*
D31*
X102494000Y-124480000D02*
X101281000Y-124480000D01*
X103510000Y-125496000D02*
X103510000Y-127880500D01*
D30*
X104808500Y-129253896D02*
X104808500Y-129179000D01*
X106050000Y-130495396D02*
X104808500Y-129253896D01*
D31*
X102875000Y-124861000D02*
X103510000Y-125496000D01*
X103510000Y-127880500D02*
X104808500Y-129179000D01*
G04 #@! TA.AperFunction,Conductor*
G36*
X115627500Y-118331462D02*
G01*
X115682038Y-118386000D01*
X115702000Y-118460500D01*
X115702000Y-119759000D01*
X115682038Y-119833500D01*
X115627500Y-119888038D01*
X115553000Y-119908000D01*
X112295000Y-119908000D01*
X112220500Y-119888038D01*
X112165962Y-119833500D01*
X112146000Y-119759000D01*
X112146000Y-118460500D01*
X112165962Y-118386000D01*
X112220500Y-118331462D01*
X112295000Y-118311500D01*
X115553000Y-118311500D01*
X115627500Y-118331462D01*
G37*
G04 #@! TD.AperFunction*
G04 #@! TA.AperFunction,Conductor*
G36*
X103372414Y-120283562D02*
G01*
X103426952Y-120338100D01*
X103446914Y-120412600D01*
X103440998Y-120454170D01*
X103435402Y-120473428D01*
X103435402Y-120473431D01*
X103432500Y-120510306D01*
X103432500Y-121591694D01*
X103434757Y-121620374D01*
X103435402Y-121628571D01*
X103481256Y-121786397D01*
X103481256Y-121786398D01*
X103489249Y-121799914D01*
X103509992Y-121874198D01*
X103510000Y-121875762D01*
X103510000Y-122067000D01*
X104720617Y-123277618D01*
X104726117Y-123283762D01*
X104834964Y-123419821D01*
X104862482Y-123482631D01*
X104863782Y-123482303D01*
X104865750Y-123490089D01*
X104865915Y-123490466D01*
X104865996Y-123491065D01*
X104866122Y-123491564D01*
X104921638Y-123632341D01*
X104923205Y-123634408D01*
X105013078Y-123752922D01*
X105133658Y-123844361D01*
X105274436Y-123899877D01*
X105301059Y-123903074D01*
X105372643Y-123931773D01*
X105388651Y-123945651D01*
X105542000Y-124099000D01*
X106304000Y-124099000D01*
X106304000Y-124607000D01*
X106295947Y-124615052D01*
X106284038Y-124659500D01*
X106229500Y-124714038D01*
X106155000Y-124734000D01*
X105288000Y-124734000D01*
X104569641Y-125452359D01*
X104502846Y-125490923D01*
X104464282Y-125496000D01*
X104299269Y-125496000D01*
X104224769Y-125476038D01*
X104170231Y-125421500D01*
X104156187Y-125388575D01*
X104152224Y-125374936D01*
X104147483Y-125352040D01*
X104145071Y-125332942D01*
X104145070Y-125332938D01*
X104127408Y-125288330D01*
X104125136Y-125281698D01*
X104111745Y-125235602D01*
X104106302Y-125226398D01*
X104101940Y-125219022D01*
X104091655Y-125198027D01*
X104084570Y-125180134D01*
X104084567Y-125180128D01*
X104073101Y-125164347D01*
X104056361Y-125141306D01*
X104052516Y-125135454D01*
X104028081Y-125094135D01*
X104014462Y-125080516D01*
X103999279Y-125062739D01*
X103987963Y-125047163D01*
X103950995Y-125016580D01*
X103945800Y-125011854D01*
X103285079Y-124351133D01*
X103285076Y-124351131D01*
X103016384Y-124082438D01*
X103005579Y-124068951D01*
X103005178Y-124069284D01*
X102999205Y-124062065D01*
X102999202Y-124062060D01*
X102947608Y-124013610D01*
X102945927Y-124011981D01*
X102925034Y-123991088D01*
X102919710Y-123986958D01*
X102914372Y-123982398D01*
X102879400Y-123949557D01*
X102879396Y-123949554D01*
X102879393Y-123949552D01*
X102862515Y-123940273D01*
X102842984Y-123927444D01*
X102827764Y-123915638D01*
X102783720Y-123896578D01*
X102777423Y-123893493D01*
X102735372Y-123870375D01*
X102735369Y-123870373D01*
X102729697Y-123868917D01*
X102716704Y-123865580D01*
X102694598Y-123858012D01*
X102676926Y-123850365D01*
X102676924Y-123850364D01*
X102668320Y-123846641D01*
X102668892Y-123845319D01*
X102611524Y-123810575D01*
X102574368Y-123742986D01*
X102575985Y-123665875D01*
X102589198Y-123634408D01*
X102590355Y-123632349D01*
X102590361Y-123632342D01*
X102645877Y-123491564D01*
X102656500Y-123403102D01*
X102656500Y-123016898D01*
X102645877Y-122928436D01*
X102590361Y-122787658D01*
X102498922Y-122667078D01*
X102498920Y-122667076D01*
X102451982Y-122631482D01*
X102378342Y-122575639D01*
X102378341Y-122575638D01*
X102237563Y-122520122D01*
X102149105Y-122509500D01*
X102149102Y-122509500D01*
X100412898Y-122509500D01*
X100412894Y-122509500D01*
X100324436Y-122520122D01*
X100183658Y-122575638D01*
X100183658Y-122575639D01*
X100063079Y-122667076D01*
X100063076Y-122667079D01*
X99971639Y-122787658D01*
X99971638Y-122787658D01*
X99916122Y-122928436D01*
X99905500Y-123016894D01*
X99905500Y-123061000D01*
X99885538Y-123135500D01*
X99831000Y-123190038D01*
X99756500Y-123210000D01*
X98325000Y-123210000D01*
X98250500Y-123190038D01*
X98195962Y-123135500D01*
X98176000Y-123061000D01*
X98176000Y-120412600D01*
X98195962Y-120338100D01*
X98250500Y-120283562D01*
X98325000Y-120263600D01*
X103297914Y-120263600D01*
X103372414Y-120283562D01*
G37*
G04 #@! TD.AperFunction*
G04 #@! TA.AperFunction,Conductor*
G36*
X109023500Y-120308962D02*
G01*
X109078038Y-120363500D01*
X109098000Y-120438000D01*
X109098000Y-121813000D01*
X110578359Y-123293359D01*
X110616923Y-123360154D01*
X110622000Y-123398718D01*
X110622000Y-126109000D01*
X110602038Y-126183500D01*
X110547500Y-126238038D01*
X110473000Y-126258000D01*
X109540718Y-126258000D01*
X109466218Y-126238038D01*
X109435359Y-126214359D01*
X107828000Y-124607000D01*
X105288000Y-124607000D01*
X105288000Y-124099000D01*
X107447000Y-124099000D01*
X107828000Y-123718000D01*
X107827999Y-120437999D01*
X107847962Y-120363500D01*
X107902500Y-120308962D01*
X107977000Y-120289000D01*
X108949000Y-120289000D01*
X109023500Y-120308962D01*
G37*
G04 #@! TD.AperFunction*
G04 #@! TA.AperFunction,Conductor*
G36*
X119902283Y-123737962D02*
G01*
X119933142Y-123761641D01*
X120230359Y-124058858D01*
X120268923Y-124125653D01*
X120274000Y-124164217D01*
X120274000Y-125474000D01*
X120254038Y-125548500D01*
X120199500Y-125603038D01*
X120125000Y-125623000D01*
X116718000Y-125623000D01*
X116718000Y-123718000D01*
X116718026Y-123718000D01*
X119827783Y-123718000D01*
X119902283Y-123737962D01*
G37*
G04 #@! TD.AperFunction*
G04 #@! TA.AperFunction,Conductor*
G36*
X121442151Y-120554618D02*
G01*
X121447663Y-120557189D01*
X121449177Y-120557895D01*
X121501615Y-120604069D01*
X121520766Y-120671262D01*
X121500549Y-120738143D01*
X121449175Y-120782658D01*
X121297614Y-120853332D01*
X121297612Y-120853333D01*
X121235428Y-120896875D01*
X121235427Y-120896875D01*
X121925000Y-121586447D01*
X121925001Y-121586447D01*
X122614572Y-120896875D01*
X122614571Y-120896873D01*
X122552391Y-120853335D01*
X122400824Y-120782658D01*
X122348385Y-120736486D01*
X122329233Y-120669292D01*
X122349449Y-120602411D01*
X122400826Y-120557893D01*
X122407855Y-120554615D01*
X122460255Y-120543000D01*
X123700236Y-120543000D01*
X123767275Y-120562685D01*
X123813030Y-120615489D01*
X123824107Y-120672629D01*
X123818202Y-120802558D01*
X123710549Y-123170899D01*
X123687841Y-123236975D01*
X123633014Y-123280285D01*
X123563659Y-123287113D01*
X123514313Y-123277791D01*
X123514306Y-123277790D01*
X123514300Y-123277790D01*
X123444515Y-123274723D01*
X123414531Y-123277697D01*
X123408408Y-123278000D01*
X123275894Y-123278000D01*
X123269215Y-123277639D01*
X123253450Y-123275932D01*
X123184436Y-123268459D01*
X123184423Y-123268458D01*
X123118890Y-123270159D01*
X123118880Y-123270159D01*
X122985732Y-123291611D01*
X122855330Y-123352420D01*
X122822090Y-123374157D01*
X122796856Y-123390659D01*
X122796853Y-123390661D01*
X122796849Y-123390663D01*
X122796851Y-123390663D01*
X122796844Y-123390668D01*
X122765098Y-123418619D01*
X122701774Y-123448146D01*
X122696851Y-123448793D01*
X122687779Y-123449801D01*
X122618975Y-123437640D01*
X122602962Y-123428134D01*
X122552643Y-123392900D01*
X122552639Y-123392898D01*
X122400824Y-123322105D01*
X122348385Y-123275932D01*
X122329233Y-123208739D01*
X122349449Y-123141858D01*
X122400825Y-123097341D01*
X122552384Y-123026668D01*
X122552386Y-123026667D01*
X122614572Y-122983124D01*
X121925000Y-122293553D01*
X121571447Y-121940000D01*
X122278553Y-121940000D01*
X122968124Y-122629572D01*
X123011666Y-122567387D01*
X123104101Y-122369159D01*
X123104105Y-122369150D01*
X123160710Y-122157894D01*
X123160712Y-122157884D01*
X123179775Y-121940000D01*
X123179775Y-121939999D01*
X123160712Y-121722115D01*
X123160710Y-121722105D01*
X123104105Y-121510849D01*
X123104101Y-121510840D01*
X123011668Y-121312615D01*
X122968123Y-121250428D01*
X122278553Y-121939999D01*
X122278553Y-121940000D01*
X121571447Y-121940000D01*
X120881875Y-121250427D01*
X120881875Y-121250428D01*
X120838333Y-121312612D01*
X120838332Y-121312614D01*
X120745898Y-121510840D01*
X120745895Y-121510847D01*
X120722209Y-121599245D01*
X120685844Y-121658905D01*
X120622996Y-121689434D01*
X120553621Y-121681139D01*
X120514753Y-121654832D01*
X120370761Y-121510840D01*
X120101972Y-121242051D01*
X120100914Y-121240965D01*
X120040064Y-121176951D01*
X120040060Y-121176948D01*
X120040059Y-121176947D01*
X120014165Y-121158924D01*
X119989709Y-121141902D01*
X119985946Y-121139064D01*
X119938413Y-121100305D01*
X119938406Y-121100300D01*
X119907959Y-121084397D01*
X119901251Y-121080334D01*
X119873049Y-121060705D01*
X119873046Y-121060703D01*
X119873045Y-121060703D01*
X119873041Y-121060701D01*
X119816680Y-121036514D01*
X119812425Y-121034494D01*
X119780861Y-121018007D01*
X119730553Y-120969522D01*
X119714444Y-120901535D01*
X119737649Y-120835631D01*
X119773174Y-120802558D01*
X119889656Y-120730712D01*
X120013712Y-120606656D01*
X120016646Y-120601898D01*
X120068594Y-120555177D01*
X120122182Y-120543000D01*
X121389745Y-120543000D01*
X121442151Y-120554618D01*
G37*
G04 #@! TD.AperFunction*
G04 #@! TA.AperFunction,Conductor*
G36*
X109803039Y-132246685D02*
G01*
X109848794Y-132299489D01*
X109860000Y-132351000D01*
X109860000Y-134389000D01*
X109840315Y-134456039D01*
X109787511Y-134501794D01*
X109736000Y-134513000D01*
X107444000Y-134513000D01*
X107376961Y-134493315D01*
X107331206Y-134440511D01*
X107320000Y-134389000D01*
X107320000Y-132351000D01*
X107339685Y-132283961D01*
X107392489Y-132238206D01*
X107444000Y-132227000D01*
X109736000Y-132227000D01*
X109803039Y-132246685D01*
G37*
G04 #@! TD.AperFunction*
G04 #@! TA.AperFunction,Conductor*
G36*
X102840408Y-128055962D02*
G01*
X102894946Y-128110500D01*
X102904288Y-128132402D01*
X102904534Y-128132296D01*
X102908257Y-128140900D01*
X102918058Y-128157473D01*
X102928341Y-128178464D01*
X102935429Y-128196367D01*
X102935432Y-128196372D01*
X102963632Y-128235186D01*
X102967487Y-128241055D01*
X102983236Y-128267684D01*
X102991919Y-128282365D01*
X102991921Y-128282367D01*
X103005533Y-128295979D01*
X103020717Y-128313758D01*
X103032032Y-128329332D01*
X103032037Y-128329337D01*
X103062770Y-128354762D01*
X103107449Y-128417631D01*
X103111358Y-128429689D01*
X103584534Y-130133121D01*
X103585240Y-130210246D01*
X103547288Y-130277391D01*
X103480849Y-130316564D01*
X103440970Y-130322000D01*
X98198000Y-130322000D01*
X98123500Y-130302038D01*
X98068962Y-130247500D01*
X98049000Y-130173000D01*
X98049000Y-128185000D01*
X98068962Y-128110500D01*
X98123500Y-128055962D01*
X98198000Y-128036000D01*
X102765908Y-128036000D01*
X102840408Y-128055962D01*
G37*
G04 #@! TD.AperFunction*
G04 #@! TA.AperFunction,Conductor*
G36*
X99625500Y-123991962D02*
G01*
X99680038Y-124046500D01*
X99700000Y-124121000D01*
X99700000Y-124861000D01*
X100208000Y-125369000D01*
X102091000Y-125369000D01*
X102165500Y-125388962D01*
X102220038Y-125443500D01*
X102240000Y-125518000D01*
X102240000Y-125982000D01*
X102220038Y-126056500D01*
X102165500Y-126111038D01*
X102091000Y-126131000D01*
X100208000Y-126131000D01*
X99700000Y-126639000D01*
X99700000Y-127379000D01*
X99680038Y-127453500D01*
X99625500Y-127508038D01*
X99551000Y-127528000D01*
X98325000Y-127528000D01*
X98250500Y-127508038D01*
X98195962Y-127453500D01*
X98176000Y-127379000D01*
X98176000Y-124121000D01*
X98195962Y-124046500D01*
X98250500Y-123991962D01*
X98325000Y-123972000D01*
X99551000Y-123972000D01*
X99625500Y-123991962D01*
G37*
G04 #@! TD.AperFunction*
G04 #@! TA.AperFunction,Conductor*
G36*
X116718000Y-123718000D02*
G01*
X116718000Y-125623000D01*
X116718000Y-128039000D01*
X116698315Y-128106039D01*
X116645511Y-128151794D01*
X116594000Y-128163000D01*
X114745598Y-128163000D01*
X114678559Y-128143315D01*
X114648770Y-128116462D01*
X113670000Y-126892999D01*
X112190617Y-125660180D01*
X112151718Y-125602141D01*
X112146000Y-125564921D01*
X112146000Y-123718492D01*
X112165685Y-123651453D01*
X112218489Y-123605698D01*
X112273442Y-123594540D01*
X116718000Y-123718000D01*
G37*
G04 #@! TD.AperFunction*
G04 #@! TA.AperFunction,Conductor*
G36*
X121470835Y-118022685D02*
G01*
X121516590Y-118075489D01*
X121526534Y-118144647D01*
X121497509Y-118208203D01*
X121456201Y-118239382D01*
X121297614Y-118313332D01*
X121297612Y-118313333D01*
X121235428Y-118356875D01*
X121235427Y-118356875D01*
X121925000Y-119046447D01*
X121925001Y-119046447D01*
X122614572Y-118356875D01*
X122614571Y-118356873D01*
X122552391Y-118313335D01*
X122393799Y-118239382D01*
X122341360Y-118193210D01*
X122322208Y-118126016D01*
X122342424Y-118059135D01*
X122395589Y-118013801D01*
X122446204Y-118003000D01*
X123063007Y-118003000D01*
X123130046Y-118022685D01*
X123175801Y-118075489D01*
X123186766Y-118134735D01*
X123157721Y-118599449D01*
X123133892Y-118665130D01*
X123078337Y-118707502D01*
X123023156Y-118715242D01*
X122968124Y-118710427D01*
X122012680Y-119665871D01*
X121951357Y-119699356D01*
X121881665Y-119694372D01*
X121837318Y-119665871D01*
X120881875Y-118710427D01*
X120881875Y-118710428D01*
X120838333Y-118772612D01*
X120838332Y-118772614D01*
X120745898Y-118970840D01*
X120745894Y-118970849D01*
X120689289Y-119182105D01*
X120689287Y-119182115D01*
X120670225Y-119399999D01*
X120670225Y-119400000D01*
X120689287Y-119617884D01*
X120689289Y-119617894D01*
X120745894Y-119829150D01*
X120745897Y-119829159D01*
X120759624Y-119858595D01*
X120770116Y-119927672D01*
X120741596Y-119991456D01*
X120683120Y-120029696D01*
X120647242Y-120035000D01*
X120295000Y-120035000D01*
X120227961Y-120015315D01*
X120182206Y-119962511D01*
X120171000Y-119911000D01*
X120171000Y-119600500D01*
X119239625Y-119600500D01*
X119364625Y-119100500D01*
X120170999Y-119100500D01*
X120170999Y-118513028D01*
X120170998Y-118513013D01*
X120160505Y-118410302D01*
X120105358Y-118243880D01*
X120105354Y-118243871D01*
X120073419Y-118192096D01*
X120054979Y-118124704D01*
X120075902Y-118058040D01*
X120129544Y-118013271D01*
X120178958Y-118003000D01*
X121403796Y-118003000D01*
X121470835Y-118022685D01*
G37*
G04 #@! TD.AperFunction*
G04 #@! TA.AperFunction,Conductor*
G36*
X106882039Y-120816685D02*
G01*
X106927794Y-120869489D01*
X106939000Y-120921000D01*
X106939000Y-123213000D01*
X106919315Y-123280039D01*
X106866511Y-123325794D01*
X106815000Y-123337000D01*
X105347598Y-123337000D01*
X105280559Y-123317315D01*
X105250770Y-123290462D01*
X104299172Y-122100965D01*
X104272664Y-122036319D01*
X104272000Y-122023503D01*
X104272000Y-120921000D01*
X104291685Y-120853961D01*
X104344489Y-120808206D01*
X104396000Y-120797000D01*
X106815000Y-120797000D01*
X106882039Y-120816685D01*
G37*
G04 #@! TD.AperFunction*
G04 #@! TA.AperFunction,Conductor*
G36*
X123236944Y-123783500D02*
G01*
X123236946Y-123783500D01*
X123407055Y-123783500D01*
X123407056Y-123783500D01*
X123422322Y-123779737D01*
X123492123Y-123782804D01*
X123549186Y-123823122D01*
X123575393Y-123887891D01*
X123575999Y-123900133D01*
X123576000Y-125880000D01*
X123556315Y-125947039D01*
X123503512Y-125992794D01*
X123452000Y-126004000D01*
X120906000Y-126004000D01*
X120838961Y-125984315D01*
X120793206Y-125931511D01*
X120782000Y-125880000D01*
X120782000Y-125523124D01*
X121235426Y-125523124D01*
X121297611Y-125566666D01*
X121297613Y-125566667D01*
X121495840Y-125659101D01*
X121495849Y-125659105D01*
X121707105Y-125715710D01*
X121707115Y-125715712D01*
X121924999Y-125734775D01*
X121925001Y-125734775D01*
X122142884Y-125715712D01*
X122142894Y-125715710D01*
X122354150Y-125659105D01*
X122354159Y-125659101D01*
X122552387Y-125566666D01*
X122614572Y-125523124D01*
X121925001Y-124833553D01*
X121925000Y-124833553D01*
X121235426Y-125523124D01*
X120782000Y-125523124D01*
X120782000Y-125296156D01*
X120801685Y-125229117D01*
X120854489Y-125183362D01*
X120870913Y-125180533D01*
X121837318Y-124214128D01*
X121898641Y-124180643D01*
X121968332Y-124185627D01*
X122012680Y-124214128D01*
X122968124Y-125169572D01*
X123011666Y-125107387D01*
X123104101Y-124909159D01*
X123104105Y-124909150D01*
X123160710Y-124697894D01*
X123160712Y-124697884D01*
X123179775Y-124480000D01*
X123179775Y-124479999D01*
X123160712Y-124262115D01*
X123160710Y-124262105D01*
X123104105Y-124050849D01*
X123104102Y-124050840D01*
X123055489Y-123946591D01*
X123044997Y-123877514D01*
X123073516Y-123813730D01*
X123131993Y-123775490D01*
X123197544Y-123773789D01*
X123236944Y-123783500D01*
G37*
G04 #@! TD.AperFunction*
M02*
