G04 #@! TF.GenerationSoftware,KiCad,Pcbnew,7.0.5*
G04 #@! TF.CreationDate,2023-07-12T12:31:12+02:00*
G04 #@! TF.ProjectId,Tunnelling-Amp,54756e6e-656c-46c6-996e-672d416d702e,1.0*
G04 #@! TF.SameCoordinates,Original*
G04 #@! TF.FileFunction,Soldermask,Top*
G04 #@! TF.FilePolarity,Negative*
%FSLAX46Y46*%
G04 Gerber Fmt 4.6, Leading zero omitted, Abs format (unit mm)*
G04 Created by KiCad (PCBNEW 7.0.5) date 2023-07-12 12:31:12*
%MOMM*%
%LPD*%
G01*
G04 APERTURE LIST*
G04 APERTURE END LIST*
G36*
X111005517Y-123167882D02*
G01*
X111022062Y-123178938D01*
X111033118Y-123195483D01*
X111037000Y-123215000D01*
X111037000Y-126744246D01*
X111056029Y-126790186D01*
X111320813Y-127054970D01*
X111366755Y-127074000D01*
X113289000Y-127074000D01*
X113299765Y-127076457D01*
X113305814Y-127076721D01*
X113306262Y-127076681D01*
X113325866Y-127081934D01*
X113355056Y-127085223D01*
X113364462Y-127091133D01*
X113364946Y-127091334D01*
X113375777Y-127093806D01*
X113398741Y-127112119D01*
X113416314Y-127122265D01*
X113416604Y-127122611D01*
X113421069Y-127126703D01*
X113430421Y-127132579D01*
X113438152Y-127140310D01*
X115003813Y-128705970D01*
X115049755Y-128725000D01*
X118115000Y-128725000D01*
X118125765Y-128727457D01*
X118131814Y-128727721D01*
X118132262Y-128727681D01*
X118151866Y-128732934D01*
X118181056Y-128736223D01*
X118190462Y-128742133D01*
X118190946Y-128742334D01*
X118201777Y-128744806D01*
X118224741Y-128763119D01*
X118242314Y-128773265D01*
X118242604Y-128773611D01*
X118247069Y-128777703D01*
X118256421Y-128783579D01*
X118891422Y-129418579D01*
X118897296Y-129427928D01*
X118901385Y-129432390D01*
X118901730Y-129432679D01*
X118911876Y-129450253D01*
X118930194Y-129473223D01*
X118932667Y-129484060D01*
X118932862Y-129484530D01*
X118938777Y-129493944D01*
X118942065Y-129523131D01*
X118947318Y-129542734D01*
X118947279Y-129543186D01*
X118947542Y-129549233D01*
X118950000Y-129560000D01*
X118950000Y-133370000D01*
X118947542Y-133380768D01*
X118947278Y-133386812D01*
X118947317Y-133387266D01*
X118942066Y-133406864D01*
X118938777Y-133436056D01*
X118932859Y-133445473D01*
X118932668Y-133445934D01*
X118930194Y-133456777D01*
X118911875Y-133479746D01*
X118901732Y-133497316D01*
X118901387Y-133497606D01*
X118897299Y-133502067D01*
X118891422Y-133511421D01*
X118256421Y-134146421D01*
X118247070Y-134152296D01*
X118242606Y-134156387D01*
X118242315Y-134156732D01*
X118224748Y-134166874D01*
X118201777Y-134185194D01*
X118190942Y-134187666D01*
X118190465Y-134187864D01*
X118181056Y-134193777D01*
X118151858Y-134197066D01*
X118132266Y-134202316D01*
X118131818Y-134202277D01*
X118125772Y-134202541D01*
X118115000Y-134205000D01*
X118104060Y-134205000D01*
X114315938Y-134205000D01*
X114305000Y-134205000D01*
X114294233Y-134202542D01*
X114288186Y-134202279D01*
X114287734Y-134202318D01*
X114268131Y-134197065D01*
X114238944Y-134193777D01*
X114229530Y-134187862D01*
X114229060Y-134187667D01*
X114218223Y-134185194D01*
X114195253Y-134166876D01*
X114177679Y-134156730D01*
X114177390Y-134156385D01*
X114172928Y-134152296D01*
X114163579Y-134146422D01*
X113528579Y-133511421D01*
X113522706Y-133502074D01*
X113518613Y-133497608D01*
X113518268Y-133497318D01*
X113508119Y-133479741D01*
X113489806Y-133456777D01*
X113487334Y-133445946D01*
X113487133Y-133445462D01*
X113481223Y-133436056D01*
X113477934Y-133406866D01*
X113472681Y-133387262D01*
X113472721Y-133386814D01*
X113472457Y-133380765D01*
X113470000Y-133370000D01*
X113470000Y-133359067D01*
X113469999Y-133359062D01*
X113469999Y-130304754D01*
X113450969Y-130258812D01*
X112336187Y-129144030D01*
X112290245Y-129125000D01*
X111366755Y-129125000D01*
X111320812Y-129144030D01*
X111056028Y-129408813D01*
X111037000Y-129454752D01*
X111037000Y-130864999D01*
X111037000Y-130865000D01*
X111037000Y-131865000D01*
X111033118Y-131884517D01*
X111022062Y-131901062D01*
X111005517Y-131912118D01*
X110986000Y-131916000D01*
X109986000Y-131916000D01*
X107856000Y-131916000D01*
X107836483Y-131912118D01*
X107819938Y-131901062D01*
X107808882Y-131884517D01*
X107805000Y-131865000D01*
X107805000Y-131611222D01*
X107731778Y-131538000D01*
X107584942Y-131538000D01*
X107574000Y-131538000D01*
X107563226Y-131535540D01*
X107557180Y-131535277D01*
X107556732Y-131535316D01*
X107537140Y-131530066D01*
X107507944Y-131526777D01*
X107498536Y-131520865D01*
X107498054Y-131520666D01*
X107487223Y-131518194D01*
X107464254Y-131499876D01*
X107446684Y-131489732D01*
X107446394Y-131489387D01*
X107441931Y-131485298D01*
X107432578Y-131479421D01*
X106162579Y-130209421D01*
X106156706Y-130200074D01*
X106152613Y-130195608D01*
X106152268Y-130195318D01*
X106142119Y-130177741D01*
X106123806Y-130154777D01*
X106121334Y-130143946D01*
X106121133Y-130143462D01*
X106115223Y-130134056D01*
X106111934Y-130104866D01*
X106106681Y-130085262D01*
X106106721Y-130084814D01*
X106106457Y-130078765D01*
X106104000Y-130068000D01*
X106104000Y-128798000D01*
X106109410Y-128774295D01*
X106109446Y-128773936D01*
X106109794Y-128759051D01*
X106113000Y-128750847D01*
X106116344Y-128738929D01*
X106117873Y-128730255D01*
X106120422Y-128725839D01*
X106123672Y-128711501D01*
X106123770Y-128711376D01*
X106123806Y-128711223D01*
X106132973Y-128699727D01*
X106134829Y-128694977D01*
X106140646Y-128688366D01*
X106147863Y-128678311D01*
X106152267Y-128670682D01*
X106163672Y-128661113D01*
X106163925Y-128660865D01*
X106179061Y-128641826D01*
X106187593Y-128634999D01*
X106187598Y-128634995D01*
X107349325Y-127705614D01*
X107373999Y-127654277D01*
X107374000Y-127263117D01*
X107310284Y-127191929D01*
X106423368Y-127093383D01*
X106416461Y-127093000D01*
X105298942Y-127093000D01*
X105288000Y-127093000D01*
X105277226Y-127090540D01*
X105271180Y-127090277D01*
X105270732Y-127090316D01*
X105251141Y-127085066D01*
X105221944Y-127081777D01*
X105212532Y-127075863D01*
X105212059Y-127075667D01*
X105201223Y-127073194D01*
X105178253Y-127054876D01*
X105160679Y-127044730D01*
X105160390Y-127044385D01*
X105155928Y-127040296D01*
X105146579Y-127034422D01*
X104384579Y-126272421D01*
X104378706Y-126263074D01*
X104374613Y-126258608D01*
X104374268Y-126258318D01*
X104364119Y-126240741D01*
X104345806Y-126217777D01*
X104343334Y-126206946D01*
X104343133Y-126206462D01*
X104337223Y-126197056D01*
X104333934Y-126167866D01*
X104328681Y-126148262D01*
X104328721Y-126147814D01*
X104328457Y-126141765D01*
X104326000Y-126131000D01*
X104326000Y-125369000D01*
X104328457Y-125358234D01*
X104328721Y-125352185D01*
X104328681Y-125351736D01*
X104333934Y-125332129D01*
X104337223Y-125302944D01*
X104343132Y-125293539D01*
X104343334Y-125293051D01*
X104345806Y-125282223D01*
X104364117Y-125259261D01*
X104374267Y-125241682D01*
X104374613Y-125241392D01*
X104378706Y-125236925D01*
X104384579Y-125227579D01*
X104392305Y-125219852D01*
X104392308Y-125219849D01*
X105185970Y-124426186D01*
X105205000Y-124380244D01*
X105205000Y-124338195D01*
X105205000Y-124338194D01*
X105205000Y-124330000D01*
X105208190Y-124313960D01*
X105212528Y-124281012D01*
X105216392Y-124272723D01*
X105220300Y-124253081D01*
X105237684Y-124227063D01*
X105242928Y-124215819D01*
X105249769Y-124208977D01*
X105263872Y-124187872D01*
X105284977Y-124173769D01*
X105291819Y-124166928D01*
X105303063Y-124161684D01*
X105329081Y-124144300D01*
X105348723Y-124140392D01*
X105357012Y-124136528D01*
X105389961Y-124132190D01*
X105406000Y-124129000D01*
X107056000Y-124129000D01*
X107072040Y-124132190D01*
X107104987Y-124136528D01*
X107113274Y-124140392D01*
X107132919Y-124144300D01*
X107158938Y-124161686D01*
X107170180Y-124166928D01*
X107177019Y-124173767D01*
X107198128Y-124187872D01*
X107212232Y-124208980D01*
X107219070Y-124215818D01*
X107224310Y-124227055D01*
X107235589Y-124243935D01*
X107292198Y-124280000D01*
X107828000Y-124280000D01*
X107838765Y-124282457D01*
X107844814Y-124282721D01*
X107845262Y-124282681D01*
X107864866Y-124287934D01*
X107894056Y-124291223D01*
X107903462Y-124297133D01*
X107903946Y-124297334D01*
X107914777Y-124299806D01*
X107937741Y-124318119D01*
X107955314Y-124328265D01*
X107955604Y-124328611D01*
X107960069Y-124332703D01*
X107969421Y-124338579D01*
X107977152Y-124346310D01*
X109669813Y-126038970D01*
X109715755Y-126058000D01*
X109861778Y-126058000D01*
X109935000Y-125984778D01*
X109935000Y-123215000D01*
X109938882Y-123195483D01*
X109949938Y-123178938D01*
X109966483Y-123167882D01*
X109986000Y-123164000D01*
X110986000Y-123164000D01*
X111005517Y-123167882D01*
G37*
G36*
X106095023Y-132574073D02*
G01*
X106133657Y-132574073D01*
X106177240Y-132583336D01*
X106228239Y-132589083D01*
X106265321Y-132602058D01*
X106297306Y-132608857D01*
X106343401Y-132629379D01*
X106397541Y-132648324D01*
X106425719Y-132666029D01*
X106450157Y-132676910D01*
X106495720Y-132710014D01*
X106549415Y-132743753D01*
X106568700Y-132763038D01*
X106585512Y-132775253D01*
X106627076Y-132821414D01*
X106676247Y-132870585D01*
X106687555Y-132888582D01*
X106697467Y-132899590D01*
X106731376Y-132958322D01*
X106771676Y-133022459D01*
X106776707Y-133036838D01*
X106781120Y-133044481D01*
X106803718Y-133114030D01*
X106830917Y-133191761D01*
X106831948Y-133200913D01*
X106832823Y-133203606D01*
X106840750Y-133279038D01*
X106851000Y-133370000D01*
X106840750Y-133460969D01*
X106832823Y-133536393D01*
X106831948Y-133539084D01*
X106830917Y-133548239D01*
X106803713Y-133625982D01*
X106781120Y-133695518D01*
X106776708Y-133703159D01*
X106771676Y-133717541D01*
X106731369Y-133781688D01*
X106697467Y-133840409D01*
X106687557Y-133851414D01*
X106676247Y-133869415D01*
X106627067Y-133918594D01*
X106585512Y-133964746D01*
X106568704Y-133976957D01*
X106549415Y-133996247D01*
X106495710Y-134029992D01*
X106450157Y-134063089D01*
X106425725Y-134073966D01*
X106397541Y-134091676D01*
X106343391Y-134110623D01*
X106297306Y-134131142D01*
X106265327Y-134137939D01*
X106228239Y-134150917D01*
X106177237Y-134156663D01*
X106133657Y-134165927D01*
X106095023Y-134165927D01*
X106050000Y-134171000D01*
X106004977Y-134165927D01*
X105966343Y-134165927D01*
X105922761Y-134156663D01*
X105871761Y-134150917D01*
X105834674Y-134137939D01*
X105802693Y-134131142D01*
X105756603Y-134110622D01*
X105702459Y-134091676D01*
X105674277Y-134073968D01*
X105649842Y-134063089D01*
X105604282Y-134029987D01*
X105550585Y-133996247D01*
X105531298Y-133976960D01*
X105514487Y-133964746D01*
X105472922Y-133918584D01*
X105423753Y-133869415D01*
X105412444Y-133851418D01*
X105402532Y-133840409D01*
X105368618Y-133781668D01*
X105328324Y-133717541D01*
X105323293Y-133703163D01*
X105318879Y-133695518D01*
X105296272Y-133625942D01*
X105269083Y-133548239D01*
X105268052Y-133539089D01*
X105267176Y-133536393D01*
X105259235Y-133460837D01*
X105249000Y-133370000D01*
X105259234Y-133279170D01*
X105267176Y-133203606D01*
X105268052Y-133200909D01*
X105269083Y-133191761D01*
X105296267Y-133114070D01*
X105318879Y-133044481D01*
X105323293Y-133036834D01*
X105328324Y-133022459D01*
X105368611Y-132958342D01*
X105402532Y-132899590D01*
X105412446Y-132888578D01*
X105423753Y-132870585D01*
X105472913Y-132821424D01*
X105514487Y-132775253D01*
X105531301Y-132763036D01*
X105550585Y-132743753D01*
X105604278Y-132710015D01*
X105649846Y-132676908D01*
X105674284Y-132666027D01*
X105702459Y-132648324D01*
X105756587Y-132629383D01*
X105802689Y-132608858D01*
X105834679Y-132602058D01*
X105871761Y-132589083D01*
X105922759Y-132583336D01*
X105966343Y-132574073D01*
X106004977Y-132574073D01*
X106050000Y-132569000D01*
X106095023Y-132574073D01*
G37*
G36*
X108635023Y-132574073D02*
G01*
X108673657Y-132574073D01*
X108717240Y-132583336D01*
X108768239Y-132589083D01*
X108805321Y-132602058D01*
X108837306Y-132608857D01*
X108883401Y-132629379D01*
X108937541Y-132648324D01*
X108965719Y-132666029D01*
X108990157Y-132676910D01*
X109035720Y-132710014D01*
X109089415Y-132743753D01*
X109108700Y-132763038D01*
X109125512Y-132775253D01*
X109167076Y-132821414D01*
X109216247Y-132870585D01*
X109227555Y-132888582D01*
X109237467Y-132899590D01*
X109271376Y-132958322D01*
X109311676Y-133022459D01*
X109316707Y-133036838D01*
X109321120Y-133044481D01*
X109343718Y-133114030D01*
X109370917Y-133191761D01*
X109371948Y-133200913D01*
X109372823Y-133203606D01*
X109380750Y-133279038D01*
X109391000Y-133370000D01*
X109380750Y-133460969D01*
X109372823Y-133536393D01*
X109371948Y-133539084D01*
X109370917Y-133548239D01*
X109343713Y-133625982D01*
X109321120Y-133695518D01*
X109316708Y-133703159D01*
X109311676Y-133717541D01*
X109271369Y-133781688D01*
X109237467Y-133840409D01*
X109227557Y-133851414D01*
X109216247Y-133869415D01*
X109167067Y-133918594D01*
X109125512Y-133964746D01*
X109108704Y-133976957D01*
X109089415Y-133996247D01*
X109035710Y-134029992D01*
X108990157Y-134063089D01*
X108965725Y-134073966D01*
X108937541Y-134091676D01*
X108883391Y-134110623D01*
X108837306Y-134131142D01*
X108805327Y-134137939D01*
X108768239Y-134150917D01*
X108717237Y-134156663D01*
X108673657Y-134165927D01*
X108635023Y-134165927D01*
X108590000Y-134171000D01*
X108544977Y-134165927D01*
X108506343Y-134165927D01*
X108462761Y-134156663D01*
X108411761Y-134150917D01*
X108374674Y-134137939D01*
X108342693Y-134131142D01*
X108296603Y-134110622D01*
X108242459Y-134091676D01*
X108214277Y-134073968D01*
X108189842Y-134063089D01*
X108144282Y-134029987D01*
X108090585Y-133996247D01*
X108071298Y-133976960D01*
X108054487Y-133964746D01*
X108012922Y-133918584D01*
X107963753Y-133869415D01*
X107952444Y-133851418D01*
X107942532Y-133840409D01*
X107908618Y-133781668D01*
X107868324Y-133717541D01*
X107863293Y-133703163D01*
X107858879Y-133695518D01*
X107836272Y-133625942D01*
X107809083Y-133548239D01*
X107808052Y-133539089D01*
X107807176Y-133536393D01*
X107799235Y-133460837D01*
X107789000Y-133370000D01*
X107799234Y-133279170D01*
X107807176Y-133203606D01*
X107808052Y-133200909D01*
X107809083Y-133191761D01*
X107836267Y-133114070D01*
X107858879Y-133044481D01*
X107863293Y-133036834D01*
X107868324Y-133022459D01*
X107908611Y-132958342D01*
X107942532Y-132899590D01*
X107952446Y-132888578D01*
X107963753Y-132870585D01*
X108012913Y-132821424D01*
X108054487Y-132775253D01*
X108071301Y-132763036D01*
X108090585Y-132743753D01*
X108144278Y-132710015D01*
X108189846Y-132676908D01*
X108214284Y-132666027D01*
X108242459Y-132648324D01*
X108296587Y-132629383D01*
X108342689Y-132608858D01*
X108374679Y-132602058D01*
X108411761Y-132589083D01*
X108462759Y-132583336D01*
X108506343Y-132574073D01*
X108544977Y-132574073D01*
X108590000Y-132569000D01*
X108635023Y-132574073D01*
G37*
G36*
X97545517Y-129167882D02*
G01*
X97562062Y-129178938D01*
X97573118Y-129195483D01*
X97577000Y-129215000D01*
X97577000Y-130740778D01*
X97650222Y-130814000D01*
X99656000Y-130814000D01*
X99675517Y-130817882D01*
X99692062Y-130828938D01*
X99703118Y-130845483D01*
X99707000Y-130865000D01*
X99707000Y-131865000D01*
X99703118Y-131884517D01*
X99692062Y-131901062D01*
X99675517Y-131912118D01*
X99656000Y-131916000D01*
X97526000Y-131916000D01*
X96526000Y-131916000D01*
X96506483Y-131912118D01*
X96489938Y-131901062D01*
X96478882Y-131884517D01*
X96475000Y-131865000D01*
X96475000Y-130865000D01*
X96475000Y-129227310D01*
X96475000Y-129215000D01*
X96478882Y-129195483D01*
X96489938Y-129178938D01*
X96506483Y-129167882D01*
X96526000Y-129164000D01*
X97526000Y-129164000D01*
X97545517Y-129167882D01*
G37*
G36*
X105675517Y-130817882D02*
G01*
X105692062Y-130828938D01*
X105703118Y-130845483D01*
X105707000Y-130865000D01*
X105707000Y-131865000D01*
X105703118Y-131884517D01*
X105692062Y-131901062D01*
X105675517Y-131912118D01*
X105656000Y-131916000D01*
X101856000Y-131916000D01*
X101836483Y-131912118D01*
X101819938Y-131901062D01*
X101808882Y-131884517D01*
X101805000Y-131865000D01*
X101805000Y-130865000D01*
X101808882Y-130845483D01*
X101819938Y-130828938D01*
X101836483Y-130817882D01*
X101856000Y-130814000D01*
X105656000Y-130814000D01*
X105675517Y-130817882D01*
G37*
G36*
X105214914Y-128260995D02*
G01*
X105230726Y-128267976D01*
X105238531Y-128269213D01*
X105271039Y-128285776D01*
X105316106Y-128305676D01*
X105394324Y-128383894D01*
X105414226Y-128428967D01*
X105430786Y-128461468D01*
X105432021Y-128469270D01*
X105439005Y-128485086D01*
X105447000Y-128554000D01*
X105447000Y-129804000D01*
X105439005Y-129872914D01*
X105432021Y-129888729D01*
X105430786Y-129896531D01*
X105414229Y-129929024D01*
X105394324Y-129974106D01*
X105316106Y-130052324D01*
X105271024Y-130072229D01*
X105238531Y-130088786D01*
X105230729Y-130090021D01*
X105214914Y-130097005D01*
X105146000Y-130105000D01*
X104346000Y-130105000D01*
X104277086Y-130097005D01*
X104261270Y-130090021D01*
X104253468Y-130088786D01*
X104220967Y-130072226D01*
X104175894Y-130052324D01*
X104097676Y-129974106D01*
X104077776Y-129929039D01*
X104061213Y-129896531D01*
X104059976Y-129888726D01*
X104052995Y-129872914D01*
X104045000Y-129804000D01*
X104045000Y-128554000D01*
X104052995Y-128485086D01*
X104059976Y-128469274D01*
X104061213Y-128461468D01*
X104077780Y-128428953D01*
X104097676Y-128383894D01*
X104175894Y-128305676D01*
X104220953Y-128285780D01*
X104253468Y-128269213D01*
X104261274Y-128267976D01*
X104277086Y-128260995D01*
X104346000Y-128253000D01*
X105146000Y-128253000D01*
X105214914Y-128260995D01*
G37*
G36*
X99473914Y-128188995D02*
G01*
X99489726Y-128195976D01*
X99497531Y-128197213D01*
X99530039Y-128213776D01*
X99575106Y-128233676D01*
X99653324Y-128311894D01*
X99673226Y-128356967D01*
X99689786Y-128389468D01*
X99691021Y-128397270D01*
X99698005Y-128413086D01*
X99706000Y-128482000D01*
X99706000Y-129157000D01*
X99698005Y-129225914D01*
X99691021Y-129241729D01*
X99689786Y-129249531D01*
X99673229Y-129282024D01*
X99653324Y-129327106D01*
X99575106Y-129405324D01*
X99530024Y-129425229D01*
X99497531Y-129441786D01*
X99489729Y-129443021D01*
X99473914Y-129450005D01*
X99405000Y-129458000D01*
X98455000Y-129458000D01*
X98386086Y-129450005D01*
X98370270Y-129443021D01*
X98362468Y-129441786D01*
X98329967Y-129425226D01*
X98284894Y-129405324D01*
X98206676Y-129327106D01*
X98186776Y-129282039D01*
X98170213Y-129249531D01*
X98168976Y-129241726D01*
X98161995Y-129225914D01*
X98154000Y-129157000D01*
X98154000Y-128482000D01*
X98161995Y-128413086D01*
X98168976Y-128397274D01*
X98170213Y-128389468D01*
X98186780Y-128356953D01*
X98206676Y-128311894D01*
X98284894Y-128233676D01*
X98329953Y-128213780D01*
X98362468Y-128197213D01*
X98370274Y-128195976D01*
X98386086Y-128188995D01*
X98455000Y-128181000D01*
X99405000Y-128181000D01*
X99473914Y-128188995D01*
G37*
G36*
X115620023Y-126224073D02*
G01*
X115658657Y-126224073D01*
X115702240Y-126233336D01*
X115753239Y-126239083D01*
X115790321Y-126252058D01*
X115822306Y-126258857D01*
X115868401Y-126279379D01*
X115922541Y-126298324D01*
X115950719Y-126316029D01*
X115975157Y-126326910D01*
X116020720Y-126360014D01*
X116074415Y-126393753D01*
X116093700Y-126413038D01*
X116110512Y-126425253D01*
X116152076Y-126471414D01*
X116201247Y-126520585D01*
X116212555Y-126538582D01*
X116222467Y-126549590D01*
X116256376Y-126608322D01*
X116296676Y-126672459D01*
X116301707Y-126686838D01*
X116306120Y-126694481D01*
X116328718Y-126764030D01*
X116355917Y-126841761D01*
X116356948Y-126850913D01*
X116357823Y-126853606D01*
X116365750Y-126929038D01*
X116376000Y-127020000D01*
X116365750Y-127110969D01*
X116357823Y-127186393D01*
X116356948Y-127189084D01*
X116355917Y-127198239D01*
X116328713Y-127275982D01*
X116306120Y-127345518D01*
X116301708Y-127353159D01*
X116296676Y-127367541D01*
X116256369Y-127431688D01*
X116222467Y-127490409D01*
X116212557Y-127501414D01*
X116201247Y-127519415D01*
X116152067Y-127568594D01*
X116110512Y-127614746D01*
X116093704Y-127626957D01*
X116074415Y-127646247D01*
X116020710Y-127679992D01*
X115975157Y-127713089D01*
X115950725Y-127723966D01*
X115922541Y-127741676D01*
X115868391Y-127760623D01*
X115822306Y-127781142D01*
X115790327Y-127787939D01*
X115753239Y-127800917D01*
X115702237Y-127806663D01*
X115658657Y-127815927D01*
X115620023Y-127815927D01*
X115575000Y-127821000D01*
X115529977Y-127815927D01*
X115491343Y-127815927D01*
X115447761Y-127806663D01*
X115396761Y-127800917D01*
X115359674Y-127787939D01*
X115327693Y-127781142D01*
X115281603Y-127760622D01*
X115227459Y-127741676D01*
X115199277Y-127723968D01*
X115174842Y-127713089D01*
X115129282Y-127679987D01*
X115075585Y-127646247D01*
X115056298Y-127626960D01*
X115039487Y-127614746D01*
X114997922Y-127568584D01*
X114948753Y-127519415D01*
X114937444Y-127501418D01*
X114927532Y-127490409D01*
X114893618Y-127431668D01*
X114853324Y-127367541D01*
X114848293Y-127353163D01*
X114843879Y-127345518D01*
X114821272Y-127275942D01*
X114794083Y-127198239D01*
X114793052Y-127189089D01*
X114792176Y-127186393D01*
X114784235Y-127110837D01*
X114774000Y-127020000D01*
X114784234Y-126929170D01*
X114792176Y-126853606D01*
X114793052Y-126850909D01*
X114794083Y-126841761D01*
X114821267Y-126764070D01*
X114843879Y-126694481D01*
X114848293Y-126686834D01*
X114853324Y-126672459D01*
X114893611Y-126608342D01*
X114927532Y-126549590D01*
X114937446Y-126538578D01*
X114948753Y-126520585D01*
X114997913Y-126471424D01*
X115039487Y-126425253D01*
X115056301Y-126413036D01*
X115075585Y-126393753D01*
X115129278Y-126360015D01*
X115174846Y-126326908D01*
X115199284Y-126316027D01*
X115227459Y-126298324D01*
X115281587Y-126279383D01*
X115327689Y-126258858D01*
X115359679Y-126252058D01*
X115396761Y-126239083D01*
X115447759Y-126233336D01*
X115491343Y-126224073D01*
X115529977Y-126224073D01*
X115575000Y-126219000D01*
X115620023Y-126224073D01*
G37*
G36*
X99473914Y-126113995D02*
G01*
X99489726Y-126120976D01*
X99497531Y-126122213D01*
X99530039Y-126138776D01*
X99575106Y-126158676D01*
X99653324Y-126236894D01*
X99673226Y-126281967D01*
X99689786Y-126314468D01*
X99691021Y-126322270D01*
X99698005Y-126338086D01*
X99706000Y-126407000D01*
X99706000Y-127082000D01*
X99698005Y-127150914D01*
X99691021Y-127166729D01*
X99689786Y-127174531D01*
X99673229Y-127207024D01*
X99653324Y-127252106D01*
X99575106Y-127330324D01*
X99530024Y-127350229D01*
X99497531Y-127366786D01*
X99489729Y-127368021D01*
X99473914Y-127375005D01*
X99405000Y-127383000D01*
X98455000Y-127383000D01*
X98386086Y-127375005D01*
X98370270Y-127368021D01*
X98362468Y-127366786D01*
X98329967Y-127350226D01*
X98284894Y-127330324D01*
X98206676Y-127252106D01*
X98186776Y-127207039D01*
X98170213Y-127174531D01*
X98168976Y-127166726D01*
X98161995Y-127150914D01*
X98154000Y-127082000D01*
X98154000Y-126407000D01*
X98161995Y-126338086D01*
X98168976Y-126322274D01*
X98170213Y-126314468D01*
X98186780Y-126281953D01*
X98206676Y-126236894D01*
X98284894Y-126158676D01*
X98329953Y-126138780D01*
X98362468Y-126122213D01*
X98370274Y-126120976D01*
X98386086Y-126113995D01*
X98455000Y-126106000D01*
X99405000Y-126106000D01*
X99473914Y-126113995D01*
G37*
G36*
X102122040Y-126672190D02*
G01*
X102154987Y-126676528D01*
X102163274Y-126680392D01*
X102182919Y-126684300D01*
X102208938Y-126701686D01*
X102220180Y-126706928D01*
X102227019Y-126713767D01*
X102248128Y-126727872D01*
X102262232Y-126748980D01*
X102269071Y-126755819D01*
X102274312Y-126767058D01*
X102291700Y-126793081D01*
X102295607Y-126812727D01*
X102299471Y-126821012D01*
X102303806Y-126853946D01*
X102307000Y-126870000D01*
X102307000Y-127170000D01*
X102303806Y-127186054D01*
X102299471Y-127218987D01*
X102295608Y-127227270D01*
X102291700Y-127246919D01*
X102274310Y-127272943D01*
X102269071Y-127284180D01*
X102262234Y-127291016D01*
X102248128Y-127312128D01*
X102227016Y-127326234D01*
X102220180Y-127333071D01*
X102208943Y-127338310D01*
X102182919Y-127355700D01*
X102163270Y-127359608D01*
X102154987Y-127363471D01*
X102122054Y-127367806D01*
X102106000Y-127371000D01*
X100456000Y-127371000D01*
X100439946Y-127367806D01*
X100407012Y-127363471D01*
X100398727Y-127359607D01*
X100379081Y-127355700D01*
X100353058Y-127338312D01*
X100341819Y-127333071D01*
X100334980Y-127326232D01*
X100313872Y-127312128D01*
X100299767Y-127291019D01*
X100292928Y-127284180D01*
X100287686Y-127272938D01*
X100270300Y-127246919D01*
X100266392Y-127227274D01*
X100262528Y-127218987D01*
X100258190Y-127186040D01*
X100255000Y-127170000D01*
X100255000Y-126870000D01*
X100258190Y-126853961D01*
X100262528Y-126821012D01*
X100266392Y-126812723D01*
X100270300Y-126793081D01*
X100287684Y-126767063D01*
X100292928Y-126755819D01*
X100299769Y-126748977D01*
X100313872Y-126727872D01*
X100334977Y-126713769D01*
X100341819Y-126706928D01*
X100353063Y-126701684D01*
X100379081Y-126684300D01*
X100398723Y-126680392D01*
X100407012Y-126676528D01*
X100439961Y-126672190D01*
X100456000Y-126669000D01*
X102106000Y-126669000D01*
X102122040Y-126672190D01*
G37*
G36*
X97545517Y-123167882D02*
G01*
X97562062Y-123178938D01*
X97573118Y-123195483D01*
X97577000Y-123215000D01*
X97577000Y-127015000D01*
X97573118Y-127034517D01*
X97562062Y-127051062D01*
X97545517Y-127062118D01*
X97526000Y-127066000D01*
X96526000Y-127066000D01*
X96506483Y-127062118D01*
X96489938Y-127051062D01*
X96478882Y-127034517D01*
X96475000Y-127015000D01*
X96475000Y-123215000D01*
X96478882Y-123195483D01*
X96489938Y-123178938D01*
X96506483Y-123167882D01*
X96526000Y-123164000D01*
X97526000Y-123164000D01*
X97545517Y-123167882D01*
G37*
G36*
X102122040Y-125402190D02*
G01*
X102154987Y-125406528D01*
X102163274Y-125410392D01*
X102182919Y-125414300D01*
X102208938Y-125431686D01*
X102220180Y-125436928D01*
X102227019Y-125443767D01*
X102248128Y-125457872D01*
X102262232Y-125478980D01*
X102269071Y-125485819D01*
X102274312Y-125497058D01*
X102291700Y-125523081D01*
X102295607Y-125542727D01*
X102299471Y-125551012D01*
X102303806Y-125583946D01*
X102307000Y-125600000D01*
X102307000Y-125900000D01*
X102303806Y-125916054D01*
X102299471Y-125948987D01*
X102295608Y-125957270D01*
X102291700Y-125976919D01*
X102274310Y-126002943D01*
X102269071Y-126014180D01*
X102262234Y-126021016D01*
X102248128Y-126042128D01*
X102227016Y-126056234D01*
X102220180Y-126063071D01*
X102208943Y-126068310D01*
X102182919Y-126085700D01*
X102163270Y-126089608D01*
X102154987Y-126093471D01*
X102122054Y-126097806D01*
X102106000Y-126101000D01*
X100456000Y-126101000D01*
X100439946Y-126097806D01*
X100407012Y-126093471D01*
X100398727Y-126089607D01*
X100379081Y-126085700D01*
X100353058Y-126068312D01*
X100341819Y-126063071D01*
X100334980Y-126056232D01*
X100313872Y-126042128D01*
X100299767Y-126021019D01*
X100292928Y-126014180D01*
X100287686Y-126002938D01*
X100270300Y-125976919D01*
X100266392Y-125957274D01*
X100262528Y-125948987D01*
X100258190Y-125916040D01*
X100255000Y-125900000D01*
X100255000Y-125600000D01*
X100258190Y-125583961D01*
X100262528Y-125551012D01*
X100266392Y-125542723D01*
X100270300Y-125523081D01*
X100287684Y-125497063D01*
X100292928Y-125485819D01*
X100299769Y-125478977D01*
X100313872Y-125457872D01*
X100334977Y-125443769D01*
X100341819Y-125436928D01*
X100353063Y-125431684D01*
X100379081Y-125414300D01*
X100398723Y-125410392D01*
X100407012Y-125406528D01*
X100439961Y-125402190D01*
X100456000Y-125399000D01*
X102106000Y-125399000D01*
X102122040Y-125402190D01*
G37*
G36*
X114917914Y-123194995D02*
G01*
X114933726Y-123201976D01*
X114941531Y-123203213D01*
X114974039Y-123219776D01*
X115019106Y-123239676D01*
X115097324Y-123317894D01*
X115117226Y-123362967D01*
X115133786Y-123395468D01*
X115135021Y-123403270D01*
X115142005Y-123419086D01*
X115150000Y-123488000D01*
X115150000Y-125063000D01*
X115142005Y-125131914D01*
X115135021Y-125147729D01*
X115133786Y-125155531D01*
X115117229Y-125188024D01*
X115097324Y-125233106D01*
X115019106Y-125311324D01*
X114974024Y-125331229D01*
X114941531Y-125347786D01*
X114933729Y-125349021D01*
X114917914Y-125356005D01*
X114849000Y-125364000D01*
X112999000Y-125364000D01*
X112930086Y-125356005D01*
X112914270Y-125349021D01*
X112906468Y-125347786D01*
X112873967Y-125331226D01*
X112828894Y-125311324D01*
X112750676Y-125233106D01*
X112730776Y-125188039D01*
X112714213Y-125155531D01*
X112712976Y-125147726D01*
X112705995Y-125131914D01*
X112698000Y-125063000D01*
X112698000Y-123488000D01*
X112705995Y-123419086D01*
X112712976Y-123403274D01*
X112714213Y-123395468D01*
X112730780Y-123362953D01*
X112750676Y-123317894D01*
X112828894Y-123239676D01*
X112873953Y-123219780D01*
X112906468Y-123203213D01*
X112914274Y-123201976D01*
X112930086Y-123194995D01*
X112999000Y-123187000D01*
X114849000Y-123187000D01*
X114917914Y-123194995D01*
G37*
G36*
X119489914Y-123194995D02*
G01*
X119505726Y-123201976D01*
X119513531Y-123203213D01*
X119546039Y-123219776D01*
X119591106Y-123239676D01*
X119669324Y-123317894D01*
X119689226Y-123362967D01*
X119705786Y-123395468D01*
X119707021Y-123403270D01*
X119714005Y-123419086D01*
X119722000Y-123488000D01*
X119722000Y-125063000D01*
X119714005Y-125131914D01*
X119707021Y-125147729D01*
X119705786Y-125155531D01*
X119689229Y-125188024D01*
X119669324Y-125233106D01*
X119591106Y-125311324D01*
X119546024Y-125331229D01*
X119513531Y-125347786D01*
X119505729Y-125349021D01*
X119489914Y-125356005D01*
X119421000Y-125364000D01*
X117571000Y-125364000D01*
X117502086Y-125356005D01*
X117486270Y-125349021D01*
X117478468Y-125347786D01*
X117445967Y-125331226D01*
X117400894Y-125311324D01*
X117322676Y-125233106D01*
X117302776Y-125188039D01*
X117286213Y-125155531D01*
X117284976Y-125147726D01*
X117277995Y-125131914D01*
X117270000Y-125063000D01*
X117270000Y-123488000D01*
X117277995Y-123419086D01*
X117284976Y-123403274D01*
X117286213Y-123395468D01*
X117302780Y-123362953D01*
X117322676Y-123317894D01*
X117400894Y-123239676D01*
X117445953Y-123219780D01*
X117478468Y-123203213D01*
X117486274Y-123201976D01*
X117502086Y-123194995D01*
X117571000Y-123187000D01*
X119421000Y-123187000D01*
X119489914Y-123194995D01*
G37*
G36*
X121970023Y-123684073D02*
G01*
X122008657Y-123684073D01*
X122052240Y-123693336D01*
X122103239Y-123699083D01*
X122140321Y-123712058D01*
X122172306Y-123718857D01*
X122218401Y-123739379D01*
X122272541Y-123758324D01*
X122300719Y-123776029D01*
X122325157Y-123786910D01*
X122370720Y-123820014D01*
X122424415Y-123853753D01*
X122443700Y-123873038D01*
X122460512Y-123885253D01*
X122502076Y-123931414D01*
X122551247Y-123980585D01*
X122562555Y-123998582D01*
X122572467Y-124009590D01*
X122606376Y-124068322D01*
X122646676Y-124132459D01*
X122651707Y-124146838D01*
X122656120Y-124154481D01*
X122678718Y-124224030D01*
X122705917Y-124301761D01*
X122706948Y-124310913D01*
X122707823Y-124313606D01*
X122715750Y-124389038D01*
X122726000Y-124480000D01*
X122715750Y-124570969D01*
X122707823Y-124646393D01*
X122706948Y-124649084D01*
X122705917Y-124658239D01*
X122678713Y-124735982D01*
X122656120Y-124805518D01*
X122651708Y-124813159D01*
X122646676Y-124827541D01*
X122606369Y-124891688D01*
X122572467Y-124950409D01*
X122562557Y-124961414D01*
X122551247Y-124979415D01*
X122502067Y-125028594D01*
X122460512Y-125074746D01*
X122443704Y-125086957D01*
X122424415Y-125106247D01*
X122370710Y-125139992D01*
X122325157Y-125173089D01*
X122300725Y-125183966D01*
X122272541Y-125201676D01*
X122218391Y-125220623D01*
X122172306Y-125241142D01*
X122140327Y-125247939D01*
X122103239Y-125260917D01*
X122052237Y-125266663D01*
X122008657Y-125275927D01*
X121970023Y-125275927D01*
X121925000Y-125281000D01*
X121879977Y-125275927D01*
X121841343Y-125275927D01*
X121797761Y-125266663D01*
X121746761Y-125260917D01*
X121709674Y-125247939D01*
X121677693Y-125241142D01*
X121631603Y-125220622D01*
X121577459Y-125201676D01*
X121549277Y-125183968D01*
X121524842Y-125173089D01*
X121479282Y-125139987D01*
X121425585Y-125106247D01*
X121406298Y-125086960D01*
X121389487Y-125074746D01*
X121347922Y-125028584D01*
X121298753Y-124979415D01*
X121287444Y-124961418D01*
X121277532Y-124950409D01*
X121243618Y-124891668D01*
X121203324Y-124827541D01*
X121198293Y-124813163D01*
X121193879Y-124805518D01*
X121171272Y-124735942D01*
X121144083Y-124658239D01*
X121143052Y-124649089D01*
X121142176Y-124646393D01*
X121134235Y-124570837D01*
X121124000Y-124480000D01*
X121134234Y-124389170D01*
X121142176Y-124313606D01*
X121143052Y-124310909D01*
X121144083Y-124301761D01*
X121171267Y-124224070D01*
X121193879Y-124154481D01*
X121198293Y-124146834D01*
X121203324Y-124132459D01*
X121243611Y-124068342D01*
X121277532Y-124009590D01*
X121287446Y-123998578D01*
X121298753Y-123980585D01*
X121347913Y-123931424D01*
X121389487Y-123885253D01*
X121406301Y-123873036D01*
X121425585Y-123853753D01*
X121479278Y-123820015D01*
X121524846Y-123786908D01*
X121549284Y-123776027D01*
X121577459Y-123758324D01*
X121631587Y-123739383D01*
X121677689Y-123718858D01*
X121709679Y-123712058D01*
X121746761Y-123699083D01*
X121797759Y-123693336D01*
X121841343Y-123684073D01*
X121879977Y-123684073D01*
X121925000Y-123679000D01*
X121970023Y-123684073D01*
G37*
G36*
X99473914Y-123997995D02*
G01*
X99489726Y-124004976D01*
X99497531Y-124006213D01*
X99530039Y-124022776D01*
X99575106Y-124042676D01*
X99653324Y-124120894D01*
X99673226Y-124165967D01*
X99689786Y-124198468D01*
X99691021Y-124206270D01*
X99698005Y-124222086D01*
X99706000Y-124291000D01*
X99706000Y-124966000D01*
X99698005Y-125034914D01*
X99691021Y-125050729D01*
X99689786Y-125058531D01*
X99673229Y-125091024D01*
X99653324Y-125136106D01*
X99575106Y-125214324D01*
X99530024Y-125234229D01*
X99497531Y-125250786D01*
X99489729Y-125252021D01*
X99473914Y-125259005D01*
X99405000Y-125267000D01*
X98455000Y-125267000D01*
X98386086Y-125259005D01*
X98370270Y-125252021D01*
X98362468Y-125250786D01*
X98329967Y-125234226D01*
X98284894Y-125214324D01*
X98206676Y-125136106D01*
X98186776Y-125091039D01*
X98170213Y-125058531D01*
X98168976Y-125050726D01*
X98161995Y-125034914D01*
X98154000Y-124966000D01*
X98154000Y-124291000D01*
X98161995Y-124222086D01*
X98168976Y-124206274D01*
X98170213Y-124198468D01*
X98186780Y-124165953D01*
X98206676Y-124120894D01*
X98284894Y-124042676D01*
X98329953Y-124022780D01*
X98362468Y-124006213D01*
X98370274Y-124004976D01*
X98386086Y-123997995D01*
X98455000Y-123990000D01*
X99405000Y-123990000D01*
X99473914Y-123997995D01*
G37*
G36*
X102122040Y-124132190D02*
G01*
X102154987Y-124136528D01*
X102163274Y-124140392D01*
X102182919Y-124144300D01*
X102208938Y-124161686D01*
X102220180Y-124166928D01*
X102227019Y-124173767D01*
X102248128Y-124187872D01*
X102262232Y-124208980D01*
X102269071Y-124215819D01*
X102274312Y-124227058D01*
X102291700Y-124253081D01*
X102295607Y-124272727D01*
X102299471Y-124281012D01*
X102303806Y-124313946D01*
X102307000Y-124330000D01*
X102307000Y-124630000D01*
X102303806Y-124646054D01*
X102299471Y-124678987D01*
X102295608Y-124687270D01*
X102291700Y-124706919D01*
X102274310Y-124732943D01*
X102269071Y-124744180D01*
X102262234Y-124751016D01*
X102248128Y-124772128D01*
X102227016Y-124786234D01*
X102220180Y-124793071D01*
X102208943Y-124798310D01*
X102182919Y-124815700D01*
X102163270Y-124819608D01*
X102154987Y-124823471D01*
X102122054Y-124827806D01*
X102106000Y-124831000D01*
X100456000Y-124831000D01*
X100439946Y-124827806D01*
X100407012Y-124823471D01*
X100398727Y-124819607D01*
X100379081Y-124815700D01*
X100353058Y-124798312D01*
X100341819Y-124793071D01*
X100334980Y-124786232D01*
X100313872Y-124772128D01*
X100299767Y-124751019D01*
X100292928Y-124744180D01*
X100287686Y-124732938D01*
X100270300Y-124706919D01*
X100266392Y-124687274D01*
X100262528Y-124678987D01*
X100258190Y-124646040D01*
X100255000Y-124630000D01*
X100255000Y-124330000D01*
X100258190Y-124313961D01*
X100262528Y-124281012D01*
X100266392Y-124272723D01*
X100270300Y-124253081D01*
X100287684Y-124227063D01*
X100292928Y-124215819D01*
X100299769Y-124208977D01*
X100313872Y-124187872D01*
X100334977Y-124173769D01*
X100341819Y-124166928D01*
X100353063Y-124161684D01*
X100379081Y-124144300D01*
X100398723Y-124140392D01*
X100407012Y-124136528D01*
X100439961Y-124132190D01*
X100456000Y-124129000D01*
X102106000Y-124129000D01*
X102122040Y-124132190D01*
G37*
G36*
X102122040Y-122862190D02*
G01*
X102154987Y-122866528D01*
X102163274Y-122870392D01*
X102182919Y-122874300D01*
X102208938Y-122891686D01*
X102220180Y-122896928D01*
X102227019Y-122903767D01*
X102248128Y-122917872D01*
X102262232Y-122938980D01*
X102269071Y-122945819D01*
X102274312Y-122957058D01*
X102291700Y-122983081D01*
X102295607Y-123002727D01*
X102299471Y-123011012D01*
X102303806Y-123043946D01*
X102307000Y-123060000D01*
X102307000Y-123360000D01*
X102303806Y-123376054D01*
X102299471Y-123408987D01*
X102295608Y-123417270D01*
X102291700Y-123436919D01*
X102274310Y-123462943D01*
X102269071Y-123474180D01*
X102262234Y-123481016D01*
X102248128Y-123502128D01*
X102227016Y-123516234D01*
X102220180Y-123523071D01*
X102208943Y-123528310D01*
X102182919Y-123545700D01*
X102163270Y-123549608D01*
X102154987Y-123553471D01*
X102122054Y-123557806D01*
X102106000Y-123561000D01*
X100456000Y-123561000D01*
X100439946Y-123557806D01*
X100407012Y-123553471D01*
X100398727Y-123549607D01*
X100379081Y-123545700D01*
X100353058Y-123528312D01*
X100341819Y-123523071D01*
X100334980Y-123516232D01*
X100313872Y-123502128D01*
X100299767Y-123481019D01*
X100292928Y-123474180D01*
X100287686Y-123462938D01*
X100270300Y-123436919D01*
X100266392Y-123417274D01*
X100262528Y-123408987D01*
X100258190Y-123376040D01*
X100255000Y-123360000D01*
X100255000Y-123060000D01*
X100258190Y-123043961D01*
X100262528Y-123011012D01*
X100266392Y-123002723D01*
X100270300Y-122983081D01*
X100287684Y-122957063D01*
X100292928Y-122945819D01*
X100299769Y-122938977D01*
X100313872Y-122917872D01*
X100334977Y-122903769D01*
X100341819Y-122896928D01*
X100353063Y-122891684D01*
X100379081Y-122874300D01*
X100398723Y-122870392D01*
X100407012Y-122866528D01*
X100439961Y-122862190D01*
X100456000Y-122859000D01*
X102106000Y-122859000D01*
X102122040Y-122862190D01*
G37*
G36*
X107072040Y-122862190D02*
G01*
X107104987Y-122866528D01*
X107113274Y-122870392D01*
X107132919Y-122874300D01*
X107158938Y-122891686D01*
X107170180Y-122896928D01*
X107177019Y-122903767D01*
X107198128Y-122917872D01*
X107212232Y-122938980D01*
X107219071Y-122945819D01*
X107224312Y-122957058D01*
X107241700Y-122983081D01*
X107245607Y-123002727D01*
X107249471Y-123011012D01*
X107253806Y-123043946D01*
X107257000Y-123060000D01*
X107257000Y-123360000D01*
X107253806Y-123376054D01*
X107249471Y-123408987D01*
X107245608Y-123417270D01*
X107241700Y-123436919D01*
X107224310Y-123462943D01*
X107219071Y-123474180D01*
X107212234Y-123481016D01*
X107198128Y-123502128D01*
X107177016Y-123516234D01*
X107170180Y-123523071D01*
X107158943Y-123528310D01*
X107132919Y-123545700D01*
X107113270Y-123549608D01*
X107104987Y-123553471D01*
X107072054Y-123557806D01*
X107056000Y-123561000D01*
X105406000Y-123561000D01*
X105389946Y-123557806D01*
X105357012Y-123553471D01*
X105348727Y-123549607D01*
X105329081Y-123545700D01*
X105303058Y-123528312D01*
X105291819Y-123523071D01*
X105284980Y-123516232D01*
X105263872Y-123502128D01*
X105249767Y-123481019D01*
X105242928Y-123474180D01*
X105237686Y-123462938D01*
X105220300Y-123436919D01*
X105216392Y-123417274D01*
X105212528Y-123408987D01*
X105208190Y-123376040D01*
X105205000Y-123360000D01*
X105205000Y-123060000D01*
X105208190Y-123043961D01*
X105212528Y-123011012D01*
X105216392Y-123002723D01*
X105220300Y-122983081D01*
X105237684Y-122957063D01*
X105242928Y-122945819D01*
X105249769Y-122938977D01*
X105263872Y-122917872D01*
X105284977Y-122903769D01*
X105291819Y-122896928D01*
X105303063Y-122891684D01*
X105329081Y-122874300D01*
X105348723Y-122870392D01*
X105357012Y-122866528D01*
X105389961Y-122862190D01*
X105406000Y-122859000D01*
X107056000Y-122859000D01*
X107072040Y-122862190D01*
G37*
G36*
X99473914Y-121922995D02*
G01*
X99489726Y-121929976D01*
X99497531Y-121931213D01*
X99530039Y-121947776D01*
X99575106Y-121967676D01*
X99653324Y-122045894D01*
X99673226Y-122090967D01*
X99689786Y-122123468D01*
X99691021Y-122131270D01*
X99698005Y-122147086D01*
X99706000Y-122216000D01*
X99706000Y-122891000D01*
X99698005Y-122959914D01*
X99691021Y-122975729D01*
X99689786Y-122983531D01*
X99673229Y-123016024D01*
X99653324Y-123061106D01*
X99575106Y-123139324D01*
X99530024Y-123159229D01*
X99497531Y-123175786D01*
X99489729Y-123177021D01*
X99473914Y-123184005D01*
X99405000Y-123192000D01*
X98455000Y-123192000D01*
X98386086Y-123184005D01*
X98370270Y-123177021D01*
X98362468Y-123175786D01*
X98329967Y-123159226D01*
X98284894Y-123139324D01*
X98206676Y-123061106D01*
X98186776Y-123016039D01*
X98170213Y-122983531D01*
X98168976Y-122975726D01*
X98161995Y-122959914D01*
X98154000Y-122891000D01*
X98154000Y-122216000D01*
X98161995Y-122147086D01*
X98168976Y-122131274D01*
X98170213Y-122123468D01*
X98186780Y-122090953D01*
X98206676Y-122045894D01*
X98284894Y-121967676D01*
X98329953Y-121947780D01*
X98362468Y-121931213D01*
X98370274Y-121929976D01*
X98386086Y-121922995D01*
X98455000Y-121915000D01*
X99405000Y-121915000D01*
X99473914Y-121922995D01*
G37*
G36*
X121970023Y-121144073D02*
G01*
X122008657Y-121144073D01*
X122052240Y-121153336D01*
X122103239Y-121159083D01*
X122140321Y-121172058D01*
X122172306Y-121178857D01*
X122218401Y-121199379D01*
X122272541Y-121218324D01*
X122300719Y-121236029D01*
X122325157Y-121246910D01*
X122370720Y-121280014D01*
X122424415Y-121313753D01*
X122443700Y-121333038D01*
X122460512Y-121345253D01*
X122502076Y-121391414D01*
X122551247Y-121440585D01*
X122562555Y-121458582D01*
X122572467Y-121469590D01*
X122606376Y-121528322D01*
X122646676Y-121592459D01*
X122651707Y-121606838D01*
X122656120Y-121614481D01*
X122678718Y-121684030D01*
X122705917Y-121761761D01*
X122706948Y-121770913D01*
X122707823Y-121773606D01*
X122715751Y-121849044D01*
X122726000Y-121940000D01*
X122715749Y-122030975D01*
X122707823Y-122106393D01*
X122706948Y-122109084D01*
X122705917Y-122118239D01*
X122678713Y-122195982D01*
X122656120Y-122265518D01*
X122651708Y-122273159D01*
X122646676Y-122287541D01*
X122606369Y-122351688D01*
X122572467Y-122410409D01*
X122562557Y-122421414D01*
X122551247Y-122439415D01*
X122502067Y-122488594D01*
X122460512Y-122534746D01*
X122443704Y-122546957D01*
X122424415Y-122566247D01*
X122370710Y-122599992D01*
X122325157Y-122633089D01*
X122300725Y-122643966D01*
X122272541Y-122661676D01*
X122218391Y-122680623D01*
X122172306Y-122701142D01*
X122140327Y-122707939D01*
X122103239Y-122720917D01*
X122052237Y-122726663D01*
X122008657Y-122735927D01*
X121970023Y-122735927D01*
X121925000Y-122741000D01*
X121879977Y-122735927D01*
X121841343Y-122735927D01*
X121797761Y-122726663D01*
X121746761Y-122720917D01*
X121709674Y-122707939D01*
X121677693Y-122701142D01*
X121631603Y-122680622D01*
X121577459Y-122661676D01*
X121549277Y-122643968D01*
X121524842Y-122633089D01*
X121479282Y-122599987D01*
X121425585Y-122566247D01*
X121406298Y-122546960D01*
X121389487Y-122534746D01*
X121347922Y-122488584D01*
X121298753Y-122439415D01*
X121287444Y-122421418D01*
X121277532Y-122410409D01*
X121243618Y-122351668D01*
X121203324Y-122287541D01*
X121198293Y-122273163D01*
X121193879Y-122265518D01*
X121171272Y-122195942D01*
X121144083Y-122118239D01*
X121143052Y-122109089D01*
X121142176Y-122106393D01*
X121134235Y-122030843D01*
X121124000Y-121940000D01*
X121134233Y-121849176D01*
X121142176Y-121773606D01*
X121143052Y-121770909D01*
X121144083Y-121761761D01*
X121171267Y-121684070D01*
X121193879Y-121614481D01*
X121198293Y-121606834D01*
X121203324Y-121592459D01*
X121243611Y-121528342D01*
X121277532Y-121469590D01*
X121287446Y-121458578D01*
X121298753Y-121440585D01*
X121347913Y-121391424D01*
X121389487Y-121345253D01*
X121406301Y-121333036D01*
X121425585Y-121313753D01*
X121479278Y-121280015D01*
X121524846Y-121246908D01*
X121549284Y-121236027D01*
X121577459Y-121218324D01*
X121631587Y-121199383D01*
X121677689Y-121178858D01*
X121709679Y-121172058D01*
X121746761Y-121159083D01*
X121797759Y-121153336D01*
X121841343Y-121144073D01*
X121879977Y-121144073D01*
X121925000Y-121139000D01*
X121970023Y-121144073D01*
G37*
G36*
X102751914Y-120282995D02*
G01*
X102767726Y-120289976D01*
X102775531Y-120291213D01*
X102808039Y-120307776D01*
X102853106Y-120327676D01*
X102931324Y-120405894D01*
X102951226Y-120450967D01*
X102967786Y-120483468D01*
X102969021Y-120491270D01*
X102976005Y-120507086D01*
X102984000Y-120576000D01*
X102984000Y-121526000D01*
X102976005Y-121594914D01*
X102969021Y-121610729D01*
X102967786Y-121618531D01*
X102951229Y-121651024D01*
X102931324Y-121696106D01*
X102853106Y-121774324D01*
X102808024Y-121794229D01*
X102775531Y-121810786D01*
X102767729Y-121812021D01*
X102751914Y-121819005D01*
X102683000Y-121827000D01*
X102008000Y-121827000D01*
X101939086Y-121819005D01*
X101923270Y-121812021D01*
X101915468Y-121810786D01*
X101882967Y-121794226D01*
X101837894Y-121774324D01*
X101759676Y-121696106D01*
X101739776Y-121651039D01*
X101723213Y-121618531D01*
X101721976Y-121610726D01*
X101714995Y-121594914D01*
X101707000Y-121526000D01*
X101707000Y-120576000D01*
X101714995Y-120507086D01*
X101721976Y-120491274D01*
X101723213Y-120483468D01*
X101739780Y-120450953D01*
X101759676Y-120405894D01*
X101837894Y-120327676D01*
X101882953Y-120307780D01*
X101915468Y-120291213D01*
X101923274Y-120289976D01*
X101939086Y-120282995D01*
X102008000Y-120275000D01*
X102683000Y-120275000D01*
X102751914Y-120282995D01*
G37*
G36*
X104826914Y-120282995D02*
G01*
X104842726Y-120289976D01*
X104850531Y-120291213D01*
X104883039Y-120307776D01*
X104928106Y-120327676D01*
X105006324Y-120405894D01*
X105026226Y-120450967D01*
X105042786Y-120483468D01*
X105044021Y-120491270D01*
X105051005Y-120507086D01*
X105059000Y-120576000D01*
X105059000Y-121526000D01*
X105051005Y-121594914D01*
X105044021Y-121610729D01*
X105042786Y-121618531D01*
X105026229Y-121651024D01*
X105006324Y-121696106D01*
X104928106Y-121774324D01*
X104883024Y-121794229D01*
X104850531Y-121810786D01*
X104842729Y-121812021D01*
X104826914Y-121819005D01*
X104758000Y-121827000D01*
X104083000Y-121827000D01*
X104014086Y-121819005D01*
X103998270Y-121812021D01*
X103990468Y-121810786D01*
X103957967Y-121794226D01*
X103912894Y-121774324D01*
X103834676Y-121696106D01*
X103814776Y-121651039D01*
X103798213Y-121618531D01*
X103796976Y-121610726D01*
X103789995Y-121594914D01*
X103782000Y-121526000D01*
X103782000Y-120576000D01*
X103789995Y-120507086D01*
X103796976Y-120491274D01*
X103798213Y-120483468D01*
X103814780Y-120450953D01*
X103834676Y-120405894D01*
X103912894Y-120327676D01*
X103957953Y-120307780D01*
X103990468Y-120291213D01*
X103998274Y-120289976D01*
X104014086Y-120282995D01*
X104083000Y-120275000D01*
X104758000Y-120275000D01*
X104826914Y-120282995D01*
G37*
G36*
X106934914Y-120282995D02*
G01*
X106950726Y-120289976D01*
X106958531Y-120291213D01*
X106991039Y-120307776D01*
X107036106Y-120327676D01*
X107114324Y-120405894D01*
X107134226Y-120450967D01*
X107150786Y-120483468D01*
X107152021Y-120491270D01*
X107159005Y-120507086D01*
X107167000Y-120576000D01*
X107167000Y-121526000D01*
X107159005Y-121594914D01*
X107152021Y-121610729D01*
X107150786Y-121618531D01*
X107134229Y-121651024D01*
X107114324Y-121696106D01*
X107036106Y-121774324D01*
X106991024Y-121794229D01*
X106958531Y-121810786D01*
X106950729Y-121812021D01*
X106934914Y-121819005D01*
X106866000Y-121827000D01*
X106191000Y-121827000D01*
X106122086Y-121819005D01*
X106106270Y-121812021D01*
X106098468Y-121810786D01*
X106065967Y-121794226D01*
X106020894Y-121774324D01*
X105942676Y-121696106D01*
X105922776Y-121651039D01*
X105906213Y-121618531D01*
X105904976Y-121610726D01*
X105897995Y-121594914D01*
X105890000Y-121526000D01*
X105890000Y-120576000D01*
X105897995Y-120507086D01*
X105904976Y-120491274D01*
X105906213Y-120483468D01*
X105922780Y-120450953D01*
X105942676Y-120405894D01*
X106020894Y-120327676D01*
X106065953Y-120307780D01*
X106098468Y-120291213D01*
X106106274Y-120289976D01*
X106122086Y-120282995D01*
X106191000Y-120275000D01*
X106866000Y-120275000D01*
X106934914Y-120282995D01*
G37*
G36*
X109009914Y-120282995D02*
G01*
X109025726Y-120289976D01*
X109033531Y-120291213D01*
X109066039Y-120307776D01*
X109111106Y-120327676D01*
X109189324Y-120405894D01*
X109209226Y-120450967D01*
X109225786Y-120483468D01*
X109227021Y-120491270D01*
X109234005Y-120507086D01*
X109242000Y-120576000D01*
X109242000Y-121526000D01*
X109234005Y-121594914D01*
X109227021Y-121610729D01*
X109225786Y-121618531D01*
X109209229Y-121651024D01*
X109189324Y-121696106D01*
X109111106Y-121774324D01*
X109066024Y-121794229D01*
X109033531Y-121810786D01*
X109025729Y-121812021D01*
X109009914Y-121819005D01*
X108941000Y-121827000D01*
X108266000Y-121827000D01*
X108197086Y-121819005D01*
X108181270Y-121812021D01*
X108173468Y-121810786D01*
X108140967Y-121794226D01*
X108095894Y-121774324D01*
X108017676Y-121696106D01*
X107997776Y-121651039D01*
X107981213Y-121618531D01*
X107979976Y-121610726D01*
X107972995Y-121594914D01*
X107965000Y-121526000D01*
X107965000Y-120576000D01*
X107972995Y-120507086D01*
X107979976Y-120491274D01*
X107981213Y-120483468D01*
X107997780Y-120450953D01*
X108017676Y-120405894D01*
X108095894Y-120327676D01*
X108140953Y-120307780D01*
X108173468Y-120291213D01*
X108181274Y-120289976D01*
X108197086Y-120282995D01*
X108266000Y-120275000D01*
X108941000Y-120275000D01*
X109009914Y-120282995D01*
G37*
G36*
X99675517Y-118317882D02*
G01*
X99692062Y-118328938D01*
X99703118Y-118345483D01*
X99707000Y-118365000D01*
X99707000Y-119365000D01*
X99703118Y-119384517D01*
X99692062Y-119401062D01*
X99675517Y-119412118D01*
X99656000Y-119416000D01*
X97650221Y-119416000D01*
X97577000Y-119489220D01*
X97577000Y-121015000D01*
X97573118Y-121034517D01*
X97562062Y-121051062D01*
X97545517Y-121062118D01*
X97526000Y-121066000D01*
X96526000Y-121066000D01*
X96506483Y-121062118D01*
X96489938Y-121051062D01*
X96478882Y-121034517D01*
X96475000Y-121015000D01*
X96475000Y-119365000D01*
X96475000Y-118377310D01*
X96475000Y-118365000D01*
X96478882Y-118345483D01*
X96489938Y-118328938D01*
X96506483Y-118317882D01*
X96526000Y-118314000D01*
X97526000Y-118314000D01*
X99643690Y-118314000D01*
X99656000Y-118314000D01*
X99675517Y-118317882D01*
G37*
G36*
X111005517Y-118317882D02*
G01*
X111022062Y-118328938D01*
X111033118Y-118345483D01*
X111037000Y-118365000D01*
X111037000Y-119365000D01*
X111037000Y-121015000D01*
X111033118Y-121034517D01*
X111022062Y-121051062D01*
X111005517Y-121062118D01*
X110986000Y-121066000D01*
X109986000Y-121066000D01*
X109966483Y-121062118D01*
X109949938Y-121051062D01*
X109938882Y-121034517D01*
X109935000Y-121015000D01*
X109935000Y-119489222D01*
X109861778Y-119416000D01*
X107856000Y-119416000D01*
X107836483Y-119412118D01*
X107819938Y-119401062D01*
X107808882Y-119384517D01*
X107805000Y-119365000D01*
X107805000Y-118365000D01*
X107808882Y-118345483D01*
X107819938Y-118328938D01*
X107836483Y-118317882D01*
X107856000Y-118314000D01*
X109986000Y-118314000D01*
X110973690Y-118314000D01*
X110986000Y-118314000D01*
X111005517Y-118317882D01*
G37*
G36*
X114917914Y-118269995D02*
G01*
X114933726Y-118276976D01*
X114941531Y-118278213D01*
X114974039Y-118294776D01*
X115019106Y-118314676D01*
X115097324Y-118392894D01*
X115117226Y-118437967D01*
X115133786Y-118470468D01*
X115135021Y-118478270D01*
X115142005Y-118494086D01*
X115150000Y-118563000D01*
X115150000Y-120138000D01*
X115142005Y-120206914D01*
X115135021Y-120222729D01*
X115133786Y-120230531D01*
X115117229Y-120263024D01*
X115097324Y-120308106D01*
X115019106Y-120386324D01*
X114974024Y-120406229D01*
X114941531Y-120422786D01*
X114933729Y-120424021D01*
X114917914Y-120431005D01*
X114849000Y-120439000D01*
X112999000Y-120439000D01*
X112930086Y-120431005D01*
X112914270Y-120424021D01*
X112906468Y-120422786D01*
X112873967Y-120406226D01*
X112828894Y-120386324D01*
X112750676Y-120308106D01*
X112730776Y-120263039D01*
X112714213Y-120230531D01*
X112712976Y-120222726D01*
X112705995Y-120206914D01*
X112698000Y-120138000D01*
X112698000Y-118563000D01*
X112705995Y-118494086D01*
X112712976Y-118478274D01*
X112714213Y-118470468D01*
X112730780Y-118437953D01*
X112750676Y-118392894D01*
X112828894Y-118314676D01*
X112873953Y-118294780D01*
X112906468Y-118278213D01*
X112914274Y-118276976D01*
X112930086Y-118269995D01*
X112999000Y-118262000D01*
X114849000Y-118262000D01*
X114917914Y-118269995D01*
G37*
G36*
X119489914Y-118269995D02*
G01*
X119505726Y-118276976D01*
X119513531Y-118278213D01*
X119546039Y-118294776D01*
X119591106Y-118314676D01*
X119669324Y-118392894D01*
X119689226Y-118437967D01*
X119705786Y-118470468D01*
X119707021Y-118478270D01*
X119714005Y-118494086D01*
X119722000Y-118563000D01*
X119722000Y-120138000D01*
X119714005Y-120206914D01*
X119707021Y-120222729D01*
X119705786Y-120230531D01*
X119689229Y-120263024D01*
X119669324Y-120308106D01*
X119591106Y-120386324D01*
X119546024Y-120406229D01*
X119513531Y-120422786D01*
X119505729Y-120424021D01*
X119489914Y-120431005D01*
X119421000Y-120439000D01*
X117571000Y-120439000D01*
X117502086Y-120431005D01*
X117486270Y-120424021D01*
X117478468Y-120422786D01*
X117445967Y-120406226D01*
X117400894Y-120386324D01*
X117322676Y-120308106D01*
X117302776Y-120263039D01*
X117286213Y-120230531D01*
X117284976Y-120222726D01*
X117277995Y-120206914D01*
X117270000Y-120138000D01*
X117270000Y-118563000D01*
X117277995Y-118494086D01*
X117284976Y-118478274D01*
X117286213Y-118470468D01*
X117302780Y-118437953D01*
X117322676Y-118392894D01*
X117400894Y-118314676D01*
X117445953Y-118294780D01*
X117478468Y-118278213D01*
X117486274Y-118276976D01*
X117502086Y-118269995D01*
X117571000Y-118262000D01*
X119421000Y-118262000D01*
X119489914Y-118269995D01*
G37*
G36*
X121970023Y-118604073D02*
G01*
X122008657Y-118604073D01*
X122052240Y-118613336D01*
X122103239Y-118619083D01*
X122140321Y-118632058D01*
X122172306Y-118638857D01*
X122218401Y-118659379D01*
X122272541Y-118678324D01*
X122300719Y-118696029D01*
X122325157Y-118706910D01*
X122370720Y-118740014D01*
X122424415Y-118773753D01*
X122443700Y-118793038D01*
X122460512Y-118805253D01*
X122502076Y-118851414D01*
X122551247Y-118900585D01*
X122562555Y-118918582D01*
X122572467Y-118929590D01*
X122606376Y-118988322D01*
X122646676Y-119052459D01*
X122651707Y-119066838D01*
X122656120Y-119074481D01*
X122678718Y-119144030D01*
X122705917Y-119221761D01*
X122706948Y-119230913D01*
X122707823Y-119233606D01*
X122715751Y-119309044D01*
X122726000Y-119400000D01*
X122715749Y-119490975D01*
X122707823Y-119566393D01*
X122706948Y-119569084D01*
X122705917Y-119578239D01*
X122678713Y-119655982D01*
X122656120Y-119725518D01*
X122651708Y-119733159D01*
X122646676Y-119747541D01*
X122606369Y-119811688D01*
X122572467Y-119870409D01*
X122562557Y-119881414D01*
X122551247Y-119899415D01*
X122502067Y-119948594D01*
X122460512Y-119994746D01*
X122443704Y-120006957D01*
X122424415Y-120026247D01*
X122370710Y-120059992D01*
X122325157Y-120093089D01*
X122300725Y-120103966D01*
X122272541Y-120121676D01*
X122218391Y-120140623D01*
X122172306Y-120161142D01*
X122140327Y-120167939D01*
X122103239Y-120180917D01*
X122052237Y-120186663D01*
X122008657Y-120195927D01*
X121970023Y-120195927D01*
X121925000Y-120201000D01*
X121879977Y-120195927D01*
X121841343Y-120195927D01*
X121797761Y-120186663D01*
X121746761Y-120180917D01*
X121709674Y-120167939D01*
X121677693Y-120161142D01*
X121631603Y-120140622D01*
X121577459Y-120121676D01*
X121549277Y-120103968D01*
X121524842Y-120093089D01*
X121479282Y-120059987D01*
X121425585Y-120026247D01*
X121406298Y-120006960D01*
X121389487Y-119994746D01*
X121347922Y-119948584D01*
X121298753Y-119899415D01*
X121287444Y-119881418D01*
X121277532Y-119870409D01*
X121243618Y-119811668D01*
X121203324Y-119747541D01*
X121198293Y-119733163D01*
X121193879Y-119725518D01*
X121171272Y-119655942D01*
X121144083Y-119578239D01*
X121143052Y-119569089D01*
X121142176Y-119566393D01*
X121134235Y-119490843D01*
X121124000Y-119400000D01*
X121134233Y-119309176D01*
X121142176Y-119233606D01*
X121143052Y-119230909D01*
X121144083Y-119221761D01*
X121171267Y-119144070D01*
X121193879Y-119074481D01*
X121198293Y-119066834D01*
X121203324Y-119052459D01*
X121243611Y-118988342D01*
X121277532Y-118929590D01*
X121287446Y-118918578D01*
X121298753Y-118900585D01*
X121347913Y-118851424D01*
X121389487Y-118805253D01*
X121406301Y-118793036D01*
X121425585Y-118773753D01*
X121479278Y-118740015D01*
X121524846Y-118706908D01*
X121549284Y-118696027D01*
X121577459Y-118678324D01*
X121631587Y-118659383D01*
X121677689Y-118638858D01*
X121709679Y-118632058D01*
X121746761Y-118619083D01*
X121797759Y-118613336D01*
X121841343Y-118604073D01*
X121879977Y-118604073D01*
X121925000Y-118599000D01*
X121970023Y-118604073D01*
G37*
G36*
X105675517Y-118317882D02*
G01*
X105692062Y-118328938D01*
X105703118Y-118345483D01*
X105707000Y-118365000D01*
X105707000Y-119365000D01*
X105703118Y-119384517D01*
X105692062Y-119401062D01*
X105675517Y-119412118D01*
X105656000Y-119416000D01*
X101856000Y-119416000D01*
X101836483Y-119412118D01*
X101819938Y-119401062D01*
X101808882Y-119384517D01*
X101805000Y-119365000D01*
X101805000Y-118365000D01*
X101808882Y-118345483D01*
X101819938Y-118328938D01*
X101836483Y-118317882D01*
X101856000Y-118314000D01*
X105656000Y-118314000D01*
X105675517Y-118317882D01*
G37*
M02*
