G04 #@! TF.GenerationSoftware,KiCad,Pcbnew,7.0.5*
G04 #@! TF.CreationDate,2023-07-12T12:31:12+02:00*
G04 #@! TF.ProjectId,Tunnelling-Amp,54756e6e-656c-46c6-996e-672d416d702e,1.0*
G04 #@! TF.SameCoordinates,Original*
G04 #@! TF.FileFunction,Legend,Top*
G04 #@! TF.FilePolarity,Positive*
%FSLAX46Y46*%
G04 Gerber Fmt 4.6, Leading zero omitted, Abs format (unit mm)*
G04 Created by KiCad (PCBNEW 7.0.5) date 2023-07-12 12:31:12*
%MOMM*%
%LPD*%
G01*
G04 APERTURE LIST*
%ADD10C,0.120000*%
G04 APERTURE END LIST*
D10*
X123685950Y-122831518D02*
X123647855Y-122907708D01*
X123647855Y-122907708D02*
X123647855Y-123021994D01*
X123647855Y-123021994D02*
X123685950Y-123136280D01*
X123685950Y-123136280D02*
X123762140Y-123212470D01*
X123762140Y-123212470D02*
X123838331Y-123250565D01*
X123838331Y-123250565D02*
X123990712Y-123288661D01*
X123990712Y-123288661D02*
X124104998Y-123288661D01*
X124104998Y-123288661D02*
X124257379Y-123250565D01*
X124257379Y-123250565D02*
X124333569Y-123212470D01*
X124333569Y-123212470D02*
X124409760Y-123136280D01*
X124409760Y-123136280D02*
X124447855Y-123021994D01*
X124447855Y-123021994D02*
X124447855Y-122945803D01*
X124447855Y-122945803D02*
X124409760Y-122831518D01*
X124409760Y-122831518D02*
X124371664Y-122793422D01*
X124371664Y-122793422D02*
X124104998Y-122793422D01*
X124104998Y-122793422D02*
X124104998Y-122945803D01*
X124447855Y-122450565D02*
X123647855Y-122450565D01*
X123647855Y-122450565D02*
X124447855Y-121993422D01*
X124447855Y-121993422D02*
X123647855Y-121993422D01*
X124447855Y-121612470D02*
X123647855Y-121612470D01*
X123647855Y-121612470D02*
X123647855Y-121421994D01*
X123647855Y-121421994D02*
X123685950Y-121307708D01*
X123685950Y-121307708D02*
X123762140Y-121231518D01*
X123762140Y-121231518D02*
X123838331Y-121193423D01*
X123838331Y-121193423D02*
X123990712Y-121155327D01*
X123990712Y-121155327D02*
X124104998Y-121155327D01*
X124104998Y-121155327D02*
X124257379Y-121193423D01*
X124257379Y-121193423D02*
X124333569Y-121231518D01*
X124333569Y-121231518D02*
X124409760Y-121307708D01*
X124409760Y-121307708D02*
X124447855Y-121421994D01*
X124447855Y-121421994D02*
X124447855Y-121612470D01*
X124143093Y-120583470D02*
X124143093Y-119973947D01*
X124447855Y-119173947D02*
X124447855Y-119631090D01*
X124447855Y-119402518D02*
X123647855Y-119402518D01*
X123647855Y-119402518D02*
X123762140Y-119478709D01*
X123762140Y-119478709D02*
X123838331Y-119554899D01*
X123838331Y-119554899D02*
X123876426Y-119631090D01*
X123647855Y-118450137D02*
X123647855Y-118831089D01*
X123647855Y-118831089D02*
X124028807Y-118869185D01*
X124028807Y-118869185D02*
X123990712Y-118831089D01*
X123990712Y-118831089D02*
X123952617Y-118754899D01*
X123952617Y-118754899D02*
X123952617Y-118564423D01*
X123952617Y-118564423D02*
X123990712Y-118488232D01*
X123990712Y-118488232D02*
X124028807Y-118450137D01*
X124028807Y-118450137D02*
X124104998Y-118412042D01*
X124104998Y-118412042D02*
X124295474Y-118412042D01*
X124295474Y-118412042D02*
X124371664Y-118450137D01*
X124371664Y-118450137D02*
X124409760Y-118488232D01*
X124409760Y-118488232D02*
X124447855Y-118564423D01*
X124447855Y-118564423D02*
X124447855Y-118754899D01*
X124447855Y-118754899D02*
X124409760Y-118831089D01*
X124409760Y-118831089D02*
X124371664Y-118869185D01*
X123647855Y-118183470D02*
X124447855Y-117916803D01*
X124447855Y-117916803D02*
X123647855Y-117650137D01*
X119484527Y-128724855D02*
X119103575Y-128724855D01*
X119103575Y-128724855D02*
X119065479Y-129105807D01*
X119065479Y-129105807D02*
X119103575Y-129067712D01*
X119103575Y-129067712D02*
X119179765Y-129029617D01*
X119179765Y-129029617D02*
X119370241Y-129029617D01*
X119370241Y-129029617D02*
X119446432Y-129067712D01*
X119446432Y-129067712D02*
X119484527Y-129105807D01*
X119484527Y-129105807D02*
X119522622Y-129181998D01*
X119522622Y-129181998D02*
X119522622Y-129372474D01*
X119522622Y-129372474D02*
X119484527Y-129448664D01*
X119484527Y-129448664D02*
X119446432Y-129486760D01*
X119446432Y-129486760D02*
X119370241Y-129524855D01*
X119370241Y-129524855D02*
X119179765Y-129524855D01*
X119179765Y-129524855D02*
X119103575Y-129486760D01*
X119103575Y-129486760D02*
X119065479Y-129448664D01*
X120017861Y-128724855D02*
X120094051Y-128724855D01*
X120094051Y-128724855D02*
X120170242Y-128762950D01*
X120170242Y-128762950D02*
X120208337Y-128801045D01*
X120208337Y-128801045D02*
X120246432Y-128877236D01*
X120246432Y-128877236D02*
X120284527Y-129029617D01*
X120284527Y-129029617D02*
X120284527Y-129220093D01*
X120284527Y-129220093D02*
X120246432Y-129372474D01*
X120246432Y-129372474D02*
X120208337Y-129448664D01*
X120208337Y-129448664D02*
X120170242Y-129486760D01*
X120170242Y-129486760D02*
X120094051Y-129524855D01*
X120094051Y-129524855D02*
X120017861Y-129524855D01*
X120017861Y-129524855D02*
X119941670Y-129486760D01*
X119941670Y-129486760D02*
X119903575Y-129448664D01*
X119903575Y-129448664D02*
X119865480Y-129372474D01*
X119865480Y-129372474D02*
X119827384Y-129220093D01*
X119827384Y-129220093D02*
X119827384Y-129029617D01*
X119827384Y-129029617D02*
X119865480Y-128877236D01*
X119865480Y-128877236D02*
X119903575Y-128801045D01*
X119903575Y-128801045D02*
X119941670Y-128762950D01*
X119941670Y-128762950D02*
X120017861Y-128724855D01*
X120779766Y-128724855D02*
X120855956Y-128724855D01*
X120855956Y-128724855D02*
X120932147Y-128762950D01*
X120932147Y-128762950D02*
X120970242Y-128801045D01*
X120970242Y-128801045D02*
X121008337Y-128877236D01*
X121008337Y-128877236D02*
X121046432Y-129029617D01*
X121046432Y-129029617D02*
X121046432Y-129220093D01*
X121046432Y-129220093D02*
X121008337Y-129372474D01*
X121008337Y-129372474D02*
X120970242Y-129448664D01*
X120970242Y-129448664D02*
X120932147Y-129486760D01*
X120932147Y-129486760D02*
X120855956Y-129524855D01*
X120855956Y-129524855D02*
X120779766Y-129524855D01*
X120779766Y-129524855D02*
X120703575Y-129486760D01*
X120703575Y-129486760D02*
X120665480Y-129448664D01*
X120665480Y-129448664D02*
X120627385Y-129372474D01*
X120627385Y-129372474D02*
X120589289Y-129220093D01*
X120589289Y-129220093D02*
X120589289Y-129029617D01*
X120589289Y-129029617D02*
X120627385Y-128877236D01*
X120627385Y-128877236D02*
X120665480Y-128801045D01*
X120665480Y-128801045D02*
X120703575Y-128762950D01*
X120703575Y-128762950D02*
X120779766Y-128724855D01*
X121275004Y-129220093D02*
X121617861Y-129220093D01*
X121275004Y-129029617D02*
X121732147Y-129029617D01*
X121846433Y-129448664D02*
X121808337Y-129486760D01*
X121808337Y-129486760D02*
X121694052Y-129524855D01*
X121694052Y-129524855D02*
X121617861Y-129524855D01*
X121617861Y-129524855D02*
X121503575Y-129486760D01*
X121503575Y-129486760D02*
X121427385Y-129410569D01*
X121427385Y-129410569D02*
X121389290Y-129334379D01*
X121389290Y-129334379D02*
X121351194Y-129181998D01*
X121351194Y-129181998D02*
X121351194Y-129067712D01*
X121351194Y-129067712D02*
X121389290Y-128915331D01*
X121389290Y-128915331D02*
X121427385Y-128839140D01*
X121427385Y-128839140D02*
X121503575Y-128762950D01*
X121503575Y-128762950D02*
X121617861Y-128724855D01*
X121617861Y-128724855D02*
X121694052Y-128724855D01*
X121694052Y-128724855D02*
X121808337Y-128762950D01*
X121808337Y-128762950D02*
X121846433Y-128801045D01*
X122760718Y-129486760D02*
X122875004Y-129524855D01*
X122875004Y-129524855D02*
X123065480Y-129524855D01*
X123065480Y-129524855D02*
X123141671Y-129486760D01*
X123141671Y-129486760D02*
X123179766Y-129448664D01*
X123179766Y-129448664D02*
X123217861Y-129372474D01*
X123217861Y-129372474D02*
X123217861Y-129296283D01*
X123217861Y-129296283D02*
X123179766Y-129220093D01*
X123179766Y-129220093D02*
X123141671Y-129181998D01*
X123141671Y-129181998D02*
X123065480Y-129143902D01*
X123065480Y-129143902D02*
X122913099Y-129105807D01*
X122913099Y-129105807D02*
X122836909Y-129067712D01*
X122836909Y-129067712D02*
X122798814Y-129029617D01*
X122798814Y-129029617D02*
X122760718Y-128953426D01*
X122760718Y-128953426D02*
X122760718Y-128877236D01*
X122760718Y-128877236D02*
X122798814Y-128801045D01*
X122798814Y-128801045D02*
X122836909Y-128762950D01*
X122836909Y-128762950D02*
X122913099Y-128724855D01*
X122913099Y-128724855D02*
X123103576Y-128724855D01*
X123103576Y-128724855D02*
X123217861Y-128762950D01*
X123446433Y-128724855D02*
X123903576Y-128724855D01*
X123675004Y-129524855D02*
X123675004Y-128724855D01*
X124170243Y-129524855D02*
X124170243Y-128724855D01*
X124170243Y-128724855D02*
X124436909Y-129296283D01*
X124436909Y-129296283D02*
X124703576Y-128724855D01*
X124703576Y-128724855D02*
X124703576Y-129524855D01*
X120589290Y-130812855D02*
X120589290Y-130012855D01*
X120589290Y-130012855D02*
X120894052Y-130012855D01*
X120894052Y-130012855D02*
X120970242Y-130050950D01*
X120970242Y-130050950D02*
X121008337Y-130089045D01*
X121008337Y-130089045D02*
X121046433Y-130165236D01*
X121046433Y-130165236D02*
X121046433Y-130279521D01*
X121046433Y-130279521D02*
X121008337Y-130355712D01*
X121008337Y-130355712D02*
X120970242Y-130393807D01*
X120970242Y-130393807D02*
X120894052Y-130431902D01*
X120894052Y-130431902D02*
X120589290Y-130431902D01*
X121389290Y-130812855D02*
X121389290Y-130279521D01*
X121389290Y-130431902D02*
X121427385Y-130355712D01*
X121427385Y-130355712D02*
X121465480Y-130317617D01*
X121465480Y-130317617D02*
X121541671Y-130279521D01*
X121541671Y-130279521D02*
X121617861Y-130279521D01*
X122189290Y-130774760D02*
X122113099Y-130812855D01*
X122113099Y-130812855D02*
X121960718Y-130812855D01*
X121960718Y-130812855D02*
X121884528Y-130774760D01*
X121884528Y-130774760D02*
X121846432Y-130698569D01*
X121846432Y-130698569D02*
X121846432Y-130393807D01*
X121846432Y-130393807D02*
X121884528Y-130317617D01*
X121884528Y-130317617D02*
X121960718Y-130279521D01*
X121960718Y-130279521D02*
X122113099Y-130279521D01*
X122113099Y-130279521D02*
X122189290Y-130317617D01*
X122189290Y-130317617D02*
X122227385Y-130393807D01*
X122227385Y-130393807D02*
X122227385Y-130469998D01*
X122227385Y-130469998D02*
X121846432Y-130546188D01*
X122913099Y-130812855D02*
X122913099Y-130393807D01*
X122913099Y-130393807D02*
X122875004Y-130317617D01*
X122875004Y-130317617D02*
X122798813Y-130279521D01*
X122798813Y-130279521D02*
X122646432Y-130279521D01*
X122646432Y-130279521D02*
X122570242Y-130317617D01*
X122913099Y-130774760D02*
X122836908Y-130812855D01*
X122836908Y-130812855D02*
X122646432Y-130812855D01*
X122646432Y-130812855D02*
X122570242Y-130774760D01*
X122570242Y-130774760D02*
X122532146Y-130698569D01*
X122532146Y-130698569D02*
X122532146Y-130622379D01*
X122532146Y-130622379D02*
X122570242Y-130546188D01*
X122570242Y-130546188D02*
X122646432Y-130508093D01*
X122646432Y-130508093D02*
X122836908Y-130508093D01*
X122836908Y-130508093D02*
X122913099Y-130469998D01*
X123294052Y-130812855D02*
X123294052Y-130279521D01*
X123294052Y-130355712D02*
X123332147Y-130317617D01*
X123332147Y-130317617D02*
X123408337Y-130279521D01*
X123408337Y-130279521D02*
X123522623Y-130279521D01*
X123522623Y-130279521D02*
X123598814Y-130317617D01*
X123598814Y-130317617D02*
X123636909Y-130393807D01*
X123636909Y-130393807D02*
X123636909Y-130812855D01*
X123636909Y-130393807D02*
X123675004Y-130317617D01*
X123675004Y-130317617D02*
X123751195Y-130279521D01*
X123751195Y-130279521D02*
X123865480Y-130279521D01*
X123865480Y-130279521D02*
X123941671Y-130317617D01*
X123941671Y-130317617D02*
X123979766Y-130393807D01*
X123979766Y-130393807D02*
X123979766Y-130812855D01*
X124360719Y-130279521D02*
X124360719Y-131079521D01*
X124360719Y-130317617D02*
X124436909Y-130279521D01*
X124436909Y-130279521D02*
X124589290Y-130279521D01*
X124589290Y-130279521D02*
X124665481Y-130317617D01*
X124665481Y-130317617D02*
X124703576Y-130355712D01*
X124703576Y-130355712D02*
X124741671Y-130431902D01*
X124741671Y-130431902D02*
X124741671Y-130660474D01*
X124741671Y-130660474D02*
X124703576Y-130736664D01*
X124703576Y-130736664D02*
X124665481Y-130774760D01*
X124665481Y-130774760D02*
X124589290Y-130812855D01*
X124589290Y-130812855D02*
X124436909Y-130812855D01*
X124436909Y-130812855D02*
X124360719Y-130774760D01*
X119827385Y-131300855D02*
X119903575Y-131300855D01*
X119903575Y-131300855D02*
X119979766Y-131338950D01*
X119979766Y-131338950D02*
X120017861Y-131377045D01*
X120017861Y-131377045D02*
X120055956Y-131453236D01*
X120055956Y-131453236D02*
X120094051Y-131605617D01*
X120094051Y-131605617D02*
X120094051Y-131796093D01*
X120094051Y-131796093D02*
X120055956Y-131948474D01*
X120055956Y-131948474D02*
X120017861Y-132024664D01*
X120017861Y-132024664D02*
X119979766Y-132062760D01*
X119979766Y-132062760D02*
X119903575Y-132100855D01*
X119903575Y-132100855D02*
X119827385Y-132100855D01*
X119827385Y-132100855D02*
X119751194Y-132062760D01*
X119751194Y-132062760D02*
X119713099Y-132024664D01*
X119713099Y-132024664D02*
X119675004Y-131948474D01*
X119675004Y-131948474D02*
X119636908Y-131796093D01*
X119636908Y-131796093D02*
X119636908Y-131605617D01*
X119636908Y-131605617D02*
X119675004Y-131453236D01*
X119675004Y-131453236D02*
X119713099Y-131377045D01*
X119713099Y-131377045D02*
X119751194Y-131338950D01*
X119751194Y-131338950D02*
X119827385Y-131300855D01*
X120360718Y-131300855D02*
X120894052Y-131300855D01*
X120894052Y-131300855D02*
X120551194Y-132100855D01*
X121770242Y-131262760D02*
X121084528Y-132291331D01*
X121998813Y-131377045D02*
X122036909Y-131338950D01*
X122036909Y-131338950D02*
X122113099Y-131300855D01*
X122113099Y-131300855D02*
X122303575Y-131300855D01*
X122303575Y-131300855D02*
X122379766Y-131338950D01*
X122379766Y-131338950D02*
X122417861Y-131377045D01*
X122417861Y-131377045D02*
X122455956Y-131453236D01*
X122455956Y-131453236D02*
X122455956Y-131529426D01*
X122455956Y-131529426D02*
X122417861Y-131643712D01*
X122417861Y-131643712D02*
X121960718Y-132100855D01*
X121960718Y-132100855D02*
X122455956Y-132100855D01*
X122951195Y-131300855D02*
X123027385Y-131300855D01*
X123027385Y-131300855D02*
X123103576Y-131338950D01*
X123103576Y-131338950D02*
X123141671Y-131377045D01*
X123141671Y-131377045D02*
X123179766Y-131453236D01*
X123179766Y-131453236D02*
X123217861Y-131605617D01*
X123217861Y-131605617D02*
X123217861Y-131796093D01*
X123217861Y-131796093D02*
X123179766Y-131948474D01*
X123179766Y-131948474D02*
X123141671Y-132024664D01*
X123141671Y-132024664D02*
X123103576Y-132062760D01*
X123103576Y-132062760D02*
X123027385Y-132100855D01*
X123027385Y-132100855D02*
X122951195Y-132100855D01*
X122951195Y-132100855D02*
X122875004Y-132062760D01*
X122875004Y-132062760D02*
X122836909Y-132024664D01*
X122836909Y-132024664D02*
X122798814Y-131948474D01*
X122798814Y-131948474D02*
X122760718Y-131796093D01*
X122760718Y-131796093D02*
X122760718Y-131605617D01*
X122760718Y-131605617D02*
X122798814Y-131453236D01*
X122798814Y-131453236D02*
X122836909Y-131377045D01*
X122836909Y-131377045D02*
X122875004Y-131338950D01*
X122875004Y-131338950D02*
X122951195Y-131300855D01*
X123522623Y-131377045D02*
X123560719Y-131338950D01*
X123560719Y-131338950D02*
X123636909Y-131300855D01*
X123636909Y-131300855D02*
X123827385Y-131300855D01*
X123827385Y-131300855D02*
X123903576Y-131338950D01*
X123903576Y-131338950D02*
X123941671Y-131377045D01*
X123941671Y-131377045D02*
X123979766Y-131453236D01*
X123979766Y-131453236D02*
X123979766Y-131529426D01*
X123979766Y-131529426D02*
X123941671Y-131643712D01*
X123941671Y-131643712D02*
X123484528Y-132100855D01*
X123484528Y-132100855D02*
X123979766Y-132100855D01*
X124246433Y-131300855D02*
X124741671Y-131300855D01*
X124741671Y-131300855D02*
X124475005Y-131605617D01*
X124475005Y-131605617D02*
X124589290Y-131605617D01*
X124589290Y-131605617D02*
X124665481Y-131643712D01*
X124665481Y-131643712D02*
X124703576Y-131681807D01*
X124703576Y-131681807D02*
X124741671Y-131757998D01*
X124741671Y-131757998D02*
X124741671Y-131948474D01*
X124741671Y-131948474D02*
X124703576Y-132024664D01*
X124703576Y-132024664D02*
X124665481Y-132062760D01*
X124665481Y-132062760D02*
X124589290Y-132100855D01*
X124589290Y-132100855D02*
X124360719Y-132100855D01*
X124360719Y-132100855D02*
X124284528Y-132062760D01*
X124284528Y-132062760D02*
X124246433Y-132024664D01*
X124143093Y-126933470D02*
X124143093Y-126323947D01*
X124447855Y-126628708D02*
X123838331Y-126628708D01*
X124447855Y-125523947D02*
X124447855Y-125981090D01*
X124447855Y-125752518D02*
X123647855Y-125752518D01*
X123647855Y-125752518D02*
X123762140Y-125828709D01*
X123762140Y-125828709D02*
X123838331Y-125904899D01*
X123838331Y-125904899D02*
X123876426Y-125981090D01*
X123647855Y-124800137D02*
X123647855Y-125181089D01*
X123647855Y-125181089D02*
X124028807Y-125219185D01*
X124028807Y-125219185D02*
X123990712Y-125181089D01*
X123990712Y-125181089D02*
X123952617Y-125104899D01*
X123952617Y-125104899D02*
X123952617Y-124914423D01*
X123952617Y-124914423D02*
X123990712Y-124838232D01*
X123990712Y-124838232D02*
X124028807Y-124800137D01*
X124028807Y-124800137D02*
X124104998Y-124762042D01*
X124104998Y-124762042D02*
X124295474Y-124762042D01*
X124295474Y-124762042D02*
X124371664Y-124800137D01*
X124371664Y-124800137D02*
X124409760Y-124838232D01*
X124409760Y-124838232D02*
X124447855Y-124914423D01*
X124447855Y-124914423D02*
X124447855Y-125104899D01*
X124447855Y-125104899D02*
X124409760Y-125181089D01*
X124409760Y-125181089D02*
X124371664Y-125219185D01*
X123647855Y-124533470D02*
X124447855Y-124266803D01*
X124447855Y-124266803D02*
X123647855Y-124000137D01*
X116906194Y-127345760D02*
X117020480Y-127383855D01*
X117020480Y-127383855D02*
X117210956Y-127383855D01*
X117210956Y-127383855D02*
X117287147Y-127345760D01*
X117287147Y-127345760D02*
X117325242Y-127307664D01*
X117325242Y-127307664D02*
X117363337Y-127231474D01*
X117363337Y-127231474D02*
X117363337Y-127155283D01*
X117363337Y-127155283D02*
X117325242Y-127079093D01*
X117325242Y-127079093D02*
X117287147Y-127040998D01*
X117287147Y-127040998D02*
X117210956Y-127002902D01*
X117210956Y-127002902D02*
X117058575Y-126964807D01*
X117058575Y-126964807D02*
X116982385Y-126926712D01*
X116982385Y-126926712D02*
X116944290Y-126888617D01*
X116944290Y-126888617D02*
X116906194Y-126812426D01*
X116906194Y-126812426D02*
X116906194Y-126736236D01*
X116906194Y-126736236D02*
X116944290Y-126660045D01*
X116944290Y-126660045D02*
X116982385Y-126621950D01*
X116982385Y-126621950D02*
X117058575Y-126583855D01*
X117058575Y-126583855D02*
X117249052Y-126583855D01*
X117249052Y-126583855D02*
X117363337Y-126621950D01*
X117706195Y-127383855D02*
X117706195Y-126583855D01*
X118049052Y-127383855D02*
X118049052Y-126964807D01*
X118049052Y-126964807D02*
X118010957Y-126888617D01*
X118010957Y-126888617D02*
X117934766Y-126850521D01*
X117934766Y-126850521D02*
X117820480Y-126850521D01*
X117820480Y-126850521D02*
X117744290Y-126888617D01*
X117744290Y-126888617D02*
X117706195Y-126926712D01*
X118430005Y-127383855D02*
X118430005Y-126850521D01*
X118430005Y-126583855D02*
X118391909Y-126621950D01*
X118391909Y-126621950D02*
X118430005Y-126660045D01*
X118430005Y-126660045D02*
X118468100Y-126621950D01*
X118468100Y-126621950D02*
X118430005Y-126583855D01*
X118430005Y-126583855D02*
X118430005Y-126660045D01*
X119115719Y-127345760D02*
X119039528Y-127383855D01*
X119039528Y-127383855D02*
X118887147Y-127383855D01*
X118887147Y-127383855D02*
X118810957Y-127345760D01*
X118810957Y-127345760D02*
X118772861Y-127269569D01*
X118772861Y-127269569D02*
X118772861Y-126964807D01*
X118772861Y-126964807D02*
X118810957Y-126888617D01*
X118810957Y-126888617D02*
X118887147Y-126850521D01*
X118887147Y-126850521D02*
X119039528Y-126850521D01*
X119039528Y-126850521D02*
X119115719Y-126888617D01*
X119115719Y-126888617D02*
X119153814Y-126964807D01*
X119153814Y-126964807D02*
X119153814Y-127040998D01*
X119153814Y-127040998D02*
X118772861Y-127117188D01*
X119610956Y-127383855D02*
X119534766Y-127345760D01*
X119534766Y-127345760D02*
X119496671Y-127269569D01*
X119496671Y-127269569D02*
X119496671Y-126583855D01*
X120258576Y-127383855D02*
X120258576Y-126583855D01*
X120258576Y-127345760D02*
X120182385Y-127383855D01*
X120182385Y-127383855D02*
X120030004Y-127383855D01*
X120030004Y-127383855D02*
X119953814Y-127345760D01*
X119953814Y-127345760D02*
X119915719Y-127307664D01*
X119915719Y-127307664D02*
X119877623Y-127231474D01*
X119877623Y-127231474D02*
X119877623Y-127002902D01*
X119877623Y-127002902D02*
X119915719Y-126926712D01*
X119915719Y-126926712D02*
X119953814Y-126888617D01*
X119953814Y-126888617D02*
X120030004Y-126850521D01*
X120030004Y-126850521D02*
X120182385Y-126850521D01*
X120182385Y-126850521D02*
X120258576Y-126888617D01*
X112435482Y-131828855D02*
X112435482Y-131028855D01*
X112816434Y-131828855D02*
X112816434Y-131028855D01*
X112816434Y-131028855D02*
X113273577Y-131828855D01*
X113273577Y-131828855D02*
X113273577Y-131028855D01*
X110619481Y-133352950D02*
X110543291Y-133314855D01*
X110543291Y-133314855D02*
X110429005Y-133314855D01*
X110429005Y-133314855D02*
X110314719Y-133352950D01*
X110314719Y-133352950D02*
X110238529Y-133429140D01*
X110238529Y-133429140D02*
X110200434Y-133505331D01*
X110200434Y-133505331D02*
X110162338Y-133657712D01*
X110162338Y-133657712D02*
X110162338Y-133771998D01*
X110162338Y-133771998D02*
X110200434Y-133924379D01*
X110200434Y-133924379D02*
X110238529Y-134000569D01*
X110238529Y-134000569D02*
X110314719Y-134076760D01*
X110314719Y-134076760D02*
X110429005Y-134114855D01*
X110429005Y-134114855D02*
X110505196Y-134114855D01*
X110505196Y-134114855D02*
X110619481Y-134076760D01*
X110619481Y-134076760D02*
X110657577Y-134038664D01*
X110657577Y-134038664D02*
X110657577Y-133771998D01*
X110657577Y-133771998D02*
X110505196Y-133771998D01*
X111000434Y-134114855D02*
X111000434Y-133314855D01*
X111000434Y-133314855D02*
X111457577Y-134114855D01*
X111457577Y-134114855D02*
X111457577Y-133314855D01*
X111838529Y-134114855D02*
X111838529Y-133314855D01*
X111838529Y-133314855D02*
X112029005Y-133314855D01*
X112029005Y-133314855D02*
X112143291Y-133352950D01*
X112143291Y-133352950D02*
X112219481Y-133429140D01*
X112219481Y-133429140D02*
X112257576Y-133505331D01*
X112257576Y-133505331D02*
X112295672Y-133657712D01*
X112295672Y-133657712D02*
X112295672Y-133771998D01*
X112295672Y-133771998D02*
X112257576Y-133924379D01*
X112257576Y-133924379D02*
X112219481Y-134000569D01*
X112219481Y-134000569D02*
X112143291Y-134076760D01*
X112143291Y-134076760D02*
X112029005Y-134114855D01*
X112029005Y-134114855D02*
X111838529Y-134114855D01*
X102758196Y-133314855D02*
X102910577Y-133314855D01*
X102910577Y-133314855D02*
X102986767Y-133352950D01*
X102986767Y-133352950D02*
X103062958Y-133429140D01*
X103062958Y-133429140D02*
X103101053Y-133581521D01*
X103101053Y-133581521D02*
X103101053Y-133848188D01*
X103101053Y-133848188D02*
X103062958Y-134000569D01*
X103062958Y-134000569D02*
X102986767Y-134076760D01*
X102986767Y-134076760D02*
X102910577Y-134114855D01*
X102910577Y-134114855D02*
X102758196Y-134114855D01*
X102758196Y-134114855D02*
X102682005Y-134076760D01*
X102682005Y-134076760D02*
X102605815Y-134000569D01*
X102605815Y-134000569D02*
X102567719Y-133848188D01*
X102567719Y-133848188D02*
X102567719Y-133581521D01*
X102567719Y-133581521D02*
X102605815Y-133429140D01*
X102605815Y-133429140D02*
X102682005Y-133352950D01*
X102682005Y-133352950D02*
X102758196Y-133314855D01*
X103443910Y-133314855D02*
X103443910Y-133962474D01*
X103443910Y-133962474D02*
X103482005Y-134038664D01*
X103482005Y-134038664D02*
X103520100Y-134076760D01*
X103520100Y-134076760D02*
X103596291Y-134114855D01*
X103596291Y-134114855D02*
X103748672Y-134114855D01*
X103748672Y-134114855D02*
X103824862Y-134076760D01*
X103824862Y-134076760D02*
X103862957Y-134038664D01*
X103862957Y-134038664D02*
X103901053Y-133962474D01*
X103901053Y-133962474D02*
X103901053Y-133314855D01*
X104167719Y-133314855D02*
X104624862Y-133314855D01*
X104396290Y-134114855D02*
X104396290Y-133314855D01*
X113536667Y-122100664D02*
X113498571Y-122138760D01*
X113498571Y-122138760D02*
X113384286Y-122176855D01*
X113384286Y-122176855D02*
X113308095Y-122176855D01*
X113308095Y-122176855D02*
X113193809Y-122138760D01*
X113193809Y-122138760D02*
X113117619Y-122062569D01*
X113117619Y-122062569D02*
X113079524Y-121986379D01*
X113079524Y-121986379D02*
X113041428Y-121833998D01*
X113041428Y-121833998D02*
X113041428Y-121719712D01*
X113041428Y-121719712D02*
X113079524Y-121567331D01*
X113079524Y-121567331D02*
X113117619Y-121491140D01*
X113117619Y-121491140D02*
X113193809Y-121414950D01*
X113193809Y-121414950D02*
X113308095Y-121376855D01*
X113308095Y-121376855D02*
X113384286Y-121376855D01*
X113384286Y-121376855D02*
X113498571Y-121414950D01*
X113498571Y-121414950D02*
X113536667Y-121453045D01*
X114260476Y-121376855D02*
X113879524Y-121376855D01*
X113879524Y-121376855D02*
X113841428Y-121757807D01*
X113841428Y-121757807D02*
X113879524Y-121719712D01*
X113879524Y-121719712D02*
X113955714Y-121681617D01*
X113955714Y-121681617D02*
X114146190Y-121681617D01*
X114146190Y-121681617D02*
X114222381Y-121719712D01*
X114222381Y-121719712D02*
X114260476Y-121757807D01*
X114260476Y-121757807D02*
X114298571Y-121833998D01*
X114298571Y-121833998D02*
X114298571Y-122024474D01*
X114298571Y-122024474D02*
X114260476Y-122100664D01*
X114260476Y-122100664D02*
X114222381Y-122138760D01*
X114222381Y-122138760D02*
X114146190Y-122176855D01*
X114146190Y-122176855D02*
X113955714Y-122176855D01*
X113955714Y-122176855D02*
X113879524Y-122138760D01*
X113879524Y-122138760D02*
X113841428Y-122100664D01*
X117981667Y-122100664D02*
X117943571Y-122138760D01*
X117943571Y-122138760D02*
X117829286Y-122176855D01*
X117829286Y-122176855D02*
X117753095Y-122176855D01*
X117753095Y-122176855D02*
X117638809Y-122138760D01*
X117638809Y-122138760D02*
X117562619Y-122062569D01*
X117562619Y-122062569D02*
X117524524Y-121986379D01*
X117524524Y-121986379D02*
X117486428Y-121833998D01*
X117486428Y-121833998D02*
X117486428Y-121719712D01*
X117486428Y-121719712D02*
X117524524Y-121567331D01*
X117524524Y-121567331D02*
X117562619Y-121491140D01*
X117562619Y-121491140D02*
X117638809Y-121414950D01*
X117638809Y-121414950D02*
X117753095Y-121376855D01*
X117753095Y-121376855D02*
X117829286Y-121376855D01*
X117829286Y-121376855D02*
X117943571Y-121414950D01*
X117943571Y-121414950D02*
X117981667Y-121453045D01*
X118667381Y-121376855D02*
X118515000Y-121376855D01*
X118515000Y-121376855D02*
X118438809Y-121414950D01*
X118438809Y-121414950D02*
X118400714Y-121453045D01*
X118400714Y-121453045D02*
X118324524Y-121567331D01*
X118324524Y-121567331D02*
X118286428Y-121719712D01*
X118286428Y-121719712D02*
X118286428Y-122024474D01*
X118286428Y-122024474D02*
X118324524Y-122100664D01*
X118324524Y-122100664D02*
X118362619Y-122138760D01*
X118362619Y-122138760D02*
X118438809Y-122176855D01*
X118438809Y-122176855D02*
X118591190Y-122176855D01*
X118591190Y-122176855D02*
X118667381Y-122138760D01*
X118667381Y-122138760D02*
X118705476Y-122100664D01*
X118705476Y-122100664D02*
X118743571Y-122024474D01*
X118743571Y-122024474D02*
X118743571Y-121833998D01*
X118743571Y-121833998D02*
X118705476Y-121757807D01*
X118705476Y-121757807D02*
X118667381Y-121719712D01*
X118667381Y-121719712D02*
X118591190Y-121681617D01*
X118591190Y-121681617D02*
X118438809Y-121681617D01*
X118438809Y-121681617D02*
X118362619Y-121719712D01*
X118362619Y-121719712D02*
X118324524Y-121757807D01*
X118324524Y-121757807D02*
X118286428Y-121833998D01*
X97955664Y-122200332D02*
X97993760Y-122238428D01*
X97993760Y-122238428D02*
X98031855Y-122352713D01*
X98031855Y-122352713D02*
X98031855Y-122428904D01*
X98031855Y-122428904D02*
X97993760Y-122543190D01*
X97993760Y-122543190D02*
X97917569Y-122619380D01*
X97917569Y-122619380D02*
X97841379Y-122657475D01*
X97841379Y-122657475D02*
X97688998Y-122695571D01*
X97688998Y-122695571D02*
X97574712Y-122695571D01*
X97574712Y-122695571D02*
X97422331Y-122657475D01*
X97422331Y-122657475D02*
X97346140Y-122619380D01*
X97346140Y-122619380D02*
X97269950Y-122543190D01*
X97269950Y-122543190D02*
X97231855Y-122428904D01*
X97231855Y-122428904D02*
X97231855Y-122352713D01*
X97231855Y-122352713D02*
X97269950Y-122238428D01*
X97269950Y-122238428D02*
X97308045Y-122200332D01*
X97231855Y-121933666D02*
X97231855Y-121438428D01*
X97231855Y-121438428D02*
X97536617Y-121705094D01*
X97536617Y-121705094D02*
X97536617Y-121590809D01*
X97536617Y-121590809D02*
X97574712Y-121514618D01*
X97574712Y-121514618D02*
X97612807Y-121476523D01*
X97612807Y-121476523D02*
X97688998Y-121438428D01*
X97688998Y-121438428D02*
X97879474Y-121438428D01*
X97879474Y-121438428D02*
X97955664Y-121476523D01*
X97955664Y-121476523D02*
X97993760Y-121514618D01*
X97993760Y-121514618D02*
X98031855Y-121590809D01*
X98031855Y-121590809D02*
X98031855Y-121819380D01*
X98031855Y-121819380D02*
X97993760Y-121895571D01*
X97993760Y-121895571D02*
X97955664Y-121933666D01*
X103027476Y-124297855D02*
X103027476Y-124945474D01*
X103027476Y-124945474D02*
X103065571Y-125021664D01*
X103065571Y-125021664D02*
X103103666Y-125059760D01*
X103103666Y-125059760D02*
X103179857Y-125097855D01*
X103179857Y-125097855D02*
X103332238Y-125097855D01*
X103332238Y-125097855D02*
X103408428Y-125059760D01*
X103408428Y-125059760D02*
X103446523Y-125021664D01*
X103446523Y-125021664D02*
X103484619Y-124945474D01*
X103484619Y-124945474D02*
X103484619Y-124297855D01*
X104284618Y-125097855D02*
X103827475Y-125097855D01*
X104056047Y-125097855D02*
X104056047Y-124297855D01*
X104056047Y-124297855D02*
X103979856Y-124412140D01*
X103979856Y-124412140D02*
X103903666Y-124488331D01*
X103903666Y-124488331D02*
X103827475Y-124526426D01*
X100582667Y-120830664D02*
X100544571Y-120868760D01*
X100544571Y-120868760D02*
X100430286Y-120906855D01*
X100430286Y-120906855D02*
X100354095Y-120906855D01*
X100354095Y-120906855D02*
X100239809Y-120868760D01*
X100239809Y-120868760D02*
X100163619Y-120792569D01*
X100163619Y-120792569D02*
X100125524Y-120716379D01*
X100125524Y-120716379D02*
X100087428Y-120563998D01*
X100087428Y-120563998D02*
X100087428Y-120449712D01*
X100087428Y-120449712D02*
X100125524Y-120297331D01*
X100125524Y-120297331D02*
X100163619Y-120221140D01*
X100163619Y-120221140D02*
X100239809Y-120144950D01*
X100239809Y-120144950D02*
X100354095Y-120106855D01*
X100354095Y-120106855D02*
X100430286Y-120106855D01*
X100430286Y-120106855D02*
X100544571Y-120144950D01*
X100544571Y-120144950D02*
X100582667Y-120183045D01*
X101268381Y-120373521D02*
X101268381Y-120906855D01*
X101077905Y-120068760D02*
X100887428Y-120640188D01*
X100887428Y-120640188D02*
X101382667Y-120640188D01*
X97828664Y-127915332D02*
X97866760Y-127953428D01*
X97866760Y-127953428D02*
X97904855Y-128067713D01*
X97904855Y-128067713D02*
X97904855Y-128143904D01*
X97904855Y-128143904D02*
X97866760Y-128258190D01*
X97866760Y-128258190D02*
X97790569Y-128334380D01*
X97790569Y-128334380D02*
X97714379Y-128372475D01*
X97714379Y-128372475D02*
X97561998Y-128410571D01*
X97561998Y-128410571D02*
X97447712Y-128410571D01*
X97447712Y-128410571D02*
X97295331Y-128372475D01*
X97295331Y-128372475D02*
X97219140Y-128334380D01*
X97219140Y-128334380D02*
X97142950Y-128258190D01*
X97142950Y-128258190D02*
X97104855Y-128143904D01*
X97104855Y-128143904D02*
X97104855Y-128067713D01*
X97104855Y-128067713D02*
X97142950Y-127953428D01*
X97142950Y-127953428D02*
X97181045Y-127915332D01*
X97904855Y-127153428D02*
X97904855Y-127610571D01*
X97904855Y-127381999D02*
X97104855Y-127381999D01*
X97104855Y-127381999D02*
X97219140Y-127458190D01*
X97219140Y-127458190D02*
X97295331Y-127534380D01*
X97295331Y-127534380D02*
X97333426Y-127610571D01*
X102995667Y-129034855D02*
X102729000Y-128653902D01*
X102538524Y-129034855D02*
X102538524Y-128234855D01*
X102538524Y-128234855D02*
X102843286Y-128234855D01*
X102843286Y-128234855D02*
X102919476Y-128272950D01*
X102919476Y-128272950D02*
X102957571Y-128311045D01*
X102957571Y-128311045D02*
X102995667Y-128387236D01*
X102995667Y-128387236D02*
X102995667Y-128501521D01*
X102995667Y-128501521D02*
X102957571Y-128577712D01*
X102957571Y-128577712D02*
X102919476Y-128615807D01*
X102919476Y-128615807D02*
X102843286Y-128653902D01*
X102843286Y-128653902D02*
X102538524Y-128653902D01*
X103757571Y-129034855D02*
X103300428Y-129034855D01*
X103529000Y-129034855D02*
X103529000Y-128234855D01*
X103529000Y-128234855D02*
X103452809Y-128349140D01*
X103452809Y-128349140D02*
X103376619Y-128425331D01*
X103376619Y-128425331D02*
X103300428Y-128463426D01*
X106551667Y-120068664D02*
X106513571Y-120106760D01*
X106513571Y-120106760D02*
X106399286Y-120144855D01*
X106399286Y-120144855D02*
X106323095Y-120144855D01*
X106323095Y-120144855D02*
X106208809Y-120106760D01*
X106208809Y-120106760D02*
X106132619Y-120030569D01*
X106132619Y-120030569D02*
X106094524Y-119954379D01*
X106094524Y-119954379D02*
X106056428Y-119801998D01*
X106056428Y-119801998D02*
X106056428Y-119687712D01*
X106056428Y-119687712D02*
X106094524Y-119535331D01*
X106094524Y-119535331D02*
X106132619Y-119459140D01*
X106132619Y-119459140D02*
X106208809Y-119382950D01*
X106208809Y-119382950D02*
X106323095Y-119344855D01*
X106323095Y-119344855D02*
X106399286Y-119344855D01*
X106399286Y-119344855D02*
X106513571Y-119382950D01*
X106513571Y-119382950D02*
X106551667Y-119421045D01*
X106856428Y-119421045D02*
X106894524Y-119382950D01*
X106894524Y-119382950D02*
X106970714Y-119344855D01*
X106970714Y-119344855D02*
X107161190Y-119344855D01*
X107161190Y-119344855D02*
X107237381Y-119382950D01*
X107237381Y-119382950D02*
X107275476Y-119421045D01*
X107275476Y-119421045D02*
X107313571Y-119497236D01*
X107313571Y-119497236D02*
X107313571Y-119573426D01*
X107313571Y-119573426D02*
X107275476Y-119687712D01*
X107275476Y-119687712D02*
X106818333Y-120144855D01*
X106818333Y-120144855D02*
X107313571Y-120144855D01*
X115634000Y-118053000D02*
X112214000Y-118053000D01*
X112214000Y-118053000D02*
X112214000Y-124813000D01*
X115634000Y-124813000D02*
X115634000Y-118053000D01*
X116786000Y-125573000D02*
X120206000Y-125573000D01*
X120206000Y-125573000D02*
X120206000Y-118813000D01*
X116786000Y-118813000D02*
X116786000Y-125573000D01*
X98195000Y-123852252D02*
X98195000Y-123329748D01*
X99665000Y-123852252D02*
X99665000Y-123329748D01*
X99956000Y-131615000D02*
X101556000Y-131615000D01*
X105956000Y-131615000D02*
X107556000Y-131615000D01*
X96776000Y-128915000D02*
X96776000Y-127315000D01*
X96776000Y-122915000D02*
X96776000Y-121315000D01*
X110736000Y-122915000D02*
X110736000Y-121315000D01*
X99956000Y-118615000D02*
X101556000Y-118615000D01*
X105956000Y-118615000D02*
X107556000Y-118615000D01*
X103756000Y-127675000D02*
X107206000Y-127675000D01*
X103756000Y-127675000D02*
X101806000Y-127675000D01*
X103756000Y-122555000D02*
X105706000Y-122555000D01*
X103756000Y-122555000D02*
X101806000Y-122555000D01*
X103121748Y-120316000D02*
X103644252Y-120316000D01*
X103121748Y-121786000D02*
X103644252Y-121786000D01*
X99665000Y-127520748D02*
X99665000Y-128043252D01*
X98195000Y-127520748D02*
X98195000Y-128043252D01*
X107827252Y-121786000D02*
X107304748Y-121786000D01*
X107827252Y-120316000D02*
X107304748Y-120316000D01*
X122875000Y-124480000D02*
G75*
G03*
X122875000Y-124480000I-950000J0D01*
G01*
X116525000Y-127020000D02*
G75*
G03*
X116525000Y-127020000I-950000J0D01*
G01*
X107000000Y-133370000D02*
G75*
G03*
X107000000Y-133370000I-950000J0D01*
G01*
X109540000Y-133370000D02*
G75*
G03*
X109540000Y-133370000I-950000J0D01*
G01*
X122875000Y-121940000D02*
G75*
G03*
X122875000Y-121940000I-950000J0D01*
G01*
X122875000Y-119400000D02*
G75*
G03*
X122875000Y-119400000I-950000J0D01*
G01*
M02*
